<mxfile host="app.diagrams.net" modified="2024-03-15T18:30:03.263Z" agent="Mozilla/5.0 (Windows NT 10.0; Win64; x64) AppleWebKit/537.36 (KHTML, like Gecko) Chrome/122.0.0.0 Safari/537.36 Edg/122.0.0.0" etag="TR21czmEZRozSpO0H9Fv" version="24.0.7" type="github">
  <diagram id="C5RBs43oDa-KdzZeNtuy" name="Page-1">
    <mxGraphModel dx="863" dy="460" grid="1" gridSize="10" guides="1" tooltips="1" connect="1" arrows="1" fold="1" page="1" pageScale="1" pageWidth="827" pageHeight="1169" math="0" shadow="0">
      <root>
        <mxCell id="WIyWlLk6GJQsqaUBKTNV-0" />
        <mxCell id="WIyWlLk6GJQsqaUBKTNV-1" parent="WIyWlLk6GJQsqaUBKTNV-0" />
        <mxCell id="JqYsh3KlYaYfrgVsSfgZ-76" style="edgeStyle=orthogonalEdgeStyle;rounded=0;sketch=1;hachureGap=4;jiggle=2;curveFitting=1;orthogonalLoop=1;jettySize=auto;html=1;entryX=0.5;entryY=1;entryDx=0;entryDy=0;fontFamily=Architects Daughter;fontSource=https%3A%2F%2Ffonts.googleapis.com%2Fcss%3Ffamily%3DArchitects%2BDaughter;" edge="1" parent="WIyWlLk6GJQsqaUBKTNV-1" source="X9B534gprq9qiMH1T9qc-1" target="JqYsh3KlYaYfrgVsSfgZ-75">
          <mxGeometry relative="1" as="geometry" />
        </mxCell>
        <mxCell id="X9B534gprq9qiMH1T9qc-1" value="&lt;p style=&quot;line-height: 120%;&quot;&gt;Migrador&amp;nbsp;&lt;/p&gt;" style="shape=module;align=left;spacingLeft=20;align=center;verticalAlign=top;whiteSpace=wrap;html=1;sketch=1;hachureGap=4;jiggle=2;curveFitting=1;fontFamily=Architects Daughter;fontSource=https%3A%2F%2Ffonts.googleapis.com%2Fcss%3Ffamily%3DArchitects%2BDaughter;" parent="WIyWlLk6GJQsqaUBKTNV-1" vertex="1">
          <mxGeometry x="110" y="460" width="100" height="50" as="geometry" />
        </mxCell>
        <mxCell id="JqYsh3KlYaYfrgVsSfgZ-55" style="edgeStyle=orthogonalEdgeStyle;rounded=0;sketch=1;hachureGap=4;jiggle=2;curveFitting=1;orthogonalLoop=1;jettySize=auto;html=1;fontFamily=Architects Daughter;fontSource=https%3A%2F%2Ffonts.googleapis.com%2Fcss%3Ffamily%3DArchitects%2BDaughter;" edge="1" parent="WIyWlLk6GJQsqaUBKTNV-1">
          <mxGeometry relative="1" as="geometry">
            <mxPoint x="500" y="260" as="targetPoint" />
            <mxPoint x="270" y="260" as="sourcePoint" />
          </mxGeometry>
        </mxCell>
        <mxCell id="JqYsh3KlYaYfrgVsSfgZ-0" value="Backend" style="ellipse;shape=cloud;whiteSpace=wrap;html=1;sketch=1;hachureGap=4;jiggle=2;curveFitting=1;fontFamily=Architects Daughter;fontSource=https%3A%2F%2Ffonts.googleapis.com%2Fcss%3Ffamily%3DArchitects%2BDaughter;" vertex="1" parent="WIyWlLk6GJQsqaUBKTNV-1">
          <mxGeometry x="100" y="235" width="120" height="80" as="geometry" />
        </mxCell>
        <mxCell id="JqYsh3KlYaYfrgVsSfgZ-64" style="edgeStyle=orthogonalEdgeStyle;rounded=0;hachureGap=4;orthogonalLoop=1;jettySize=auto;html=1;exitX=1;exitY=0.5;exitDx=0;exitDy=0;exitPerimeter=0;fontFamily=Architects Daughter;fontSource=https%3A%2F%2Ffonts.googleapis.com%2Fcss%3Ffamily%3DArchitects%2BDaughter;sketch=1;curveFitting=1;jiggle=2;" edge="1" parent="WIyWlLk6GJQsqaUBKTNV-1" source="JqYsh3KlYaYfrgVsSfgZ-10">
          <mxGeometry relative="1" as="geometry">
            <mxPoint x="270" y="260" as="targetPoint" />
          </mxGeometry>
        </mxCell>
        <mxCell id="JqYsh3KlYaYfrgVsSfgZ-65" value="o ID do pai agora é&amp;nbsp;&lt;div&gt;&quot;&lt;b&gt;pai_456&lt;/b&gt;&quot;&lt;/div&gt;" style="edgeLabel;html=1;align=center;verticalAlign=middle;resizable=0;points=[];sketch=1;hachureGap=4;jiggle=2;curveFitting=1;fontFamily=Architects Daughter;fontSource=https%3A%2F%2Ffonts.googleapis.com%2Fcss%3Ffamily%3DArchitects%2BDaughter;" vertex="1" connectable="0" parent="JqYsh3KlYaYfrgVsSfgZ-64">
          <mxGeometry x="0.1856" y="-1" relative="1" as="geometry">
            <mxPoint y="-34" as="offset" />
          </mxGeometry>
        </mxCell>
        <mxCell id="JqYsh3KlYaYfrgVsSfgZ-10" value="tabela de relação" style="shape=cylinder3;whiteSpace=wrap;html=1;boundedLbl=1;backgroundOutline=1;size=15;sketch=1;hachureGap=4;jiggle=2;curveFitting=1;fontFamily=Architects Daughter;fontSource=https%3A%2F%2Ffonts.googleapis.com%2Fcss%3Ffamily%3DArchitects%2BDaughter;" vertex="1" parent="WIyWlLk6GJQsqaUBKTNV-1">
          <mxGeometry x="130.00000000000003" y="80" width="60" height="80" as="geometry" />
        </mxCell>
        <mxCell id="JqYsh3KlYaYfrgVsSfgZ-48" value="" style="endArrow=none;html=1;rounded=0;hachureGap=4;fontFamily=Architects Daughter;fontSource=https%3A%2F%2Ffonts.googleapis.com%2Fcss%3Ffamily%3DArchitects%2BDaughter;entryX=1;entryY=0;entryDx=0;entryDy=0;exitX=1;exitY=0;exitDx=0;exitDy=0;fillColor=#f5f5f5;strokeColor=#666666;opacity=60;" edge="1" parent="WIyWlLk6GJQsqaUBKTNV-1" source="JqYsh3KlYaYfrgVsSfgZ-75" target="JqYsh3KlYaYfrgVsSfgZ-36">
          <mxGeometry width="50" height="50" relative="1" as="geometry">
            <mxPoint x="209.32506" y="395.20000000000005" as="sourcePoint" />
            <mxPoint x="290" y="520" as="targetPoint" />
          </mxGeometry>
        </mxCell>
        <mxCell id="JqYsh3KlYaYfrgVsSfgZ-50" value="" style="endArrow=none;html=1;rounded=0;hachureGap=4;fontFamily=Architects Daughter;fontSource=https%3A%2F%2Ffonts.googleapis.com%2Fcss%3Ffamily%3DArchitects%2BDaughter;exitX=0;exitY=1;exitDx=0;exitDy=0;entryX=1;entryY=1;entryDx=0;entryDy=0;fillColor=#f5f5f5;strokeColor=#666666;opacity=60;" edge="1" parent="WIyWlLk6GJQsqaUBKTNV-1" source="JqYsh3KlYaYfrgVsSfgZ-36" target="JqYsh3KlYaYfrgVsSfgZ-75">
          <mxGeometry width="50" height="50" relative="1" as="geometry">
            <mxPoint x="330" y="640" as="sourcePoint" />
            <mxPoint x="210" y="440" as="targetPoint" />
          </mxGeometry>
        </mxCell>
        <mxCell id="JqYsh3KlYaYfrgVsSfgZ-51" style="edgeStyle=orthogonalEdgeStyle;rounded=0;sketch=1;hachureGap=4;jiggle=2;curveFitting=1;orthogonalLoop=1;jettySize=auto;html=1;entryX=0.5;entryY=1;entryDx=0;entryDy=0;entryPerimeter=0;fontFamily=Architects Daughter;fontSource=https%3A%2F%2Ffonts.googleapis.com%2Fcss%3Ffamily%3DArchitects%2BDaughter;" edge="1" parent="WIyWlLk6GJQsqaUBKTNV-1" source="JqYsh3KlYaYfrgVsSfgZ-0" target="JqYsh3KlYaYfrgVsSfgZ-10">
          <mxGeometry relative="1" as="geometry" />
        </mxCell>
        <mxCell id="JqYsh3KlYaYfrgVsSfgZ-52" value="Checa qual o novo ID do registro&amp;nbsp;&lt;div&gt;que antes era &lt;b&gt;&#39;&lt;/b&gt;&lt;span style=&quot;font-size: 12px; text-align: left; text-wrap: wrap; background-color: rgb(251, 251, 251);&quot;&gt;&lt;b&gt;pai_123&lt;/b&gt;&lt;/span&gt;&lt;b&gt;&#39;&lt;/b&gt;&lt;/div&gt;" style="edgeLabel;html=1;align=center;verticalAlign=middle;resizable=0;points=[];sketch=1;hachureGap=4;jiggle=2;curveFitting=1;fontFamily=Architects Daughter;fontSource=https%3A%2F%2Ffonts.googleapis.com%2Fcss%3Ffamily%3DArchitects%2BDaughter;" vertex="1" connectable="0" parent="JqYsh3KlYaYfrgVsSfgZ-51">
          <mxGeometry x="-0.0471" y="2" relative="1" as="geometry">
            <mxPoint x="2" as="offset" />
          </mxGeometry>
        </mxCell>
        <mxCell id="JqYsh3KlYaYfrgVsSfgZ-61" value="tabela x" style="shape=cylinder3;whiteSpace=wrap;html=1;boundedLbl=1;backgroundOutline=1;size=15;sketch=1;hachureGap=4;jiggle=2;curveFitting=1;fontFamily=Architects Daughter;fontSource=https%3A%2F%2Ffonts.googleapis.com%2Fcss%3Ffamily%3DArchitects%2BDaughter;" vertex="1" parent="WIyWlLk6GJQsqaUBKTNV-1">
          <mxGeometry x="510" y="220" width="60" height="80" as="geometry" />
        </mxCell>
        <mxCell id="JqYsh3KlYaYfrgVsSfgZ-37" value="" style="group" vertex="1" connectable="0" parent="WIyWlLk6GJQsqaUBKTNV-1">
          <mxGeometry x="282.55" y="400" width="307.45" height="110" as="geometry" />
        </mxCell>
        <mxCell id="JqYsh3KlYaYfrgVsSfgZ-36" value="" style="rounded=0;whiteSpace=wrap;html=1;sketch=1;hachureGap=4;jiggle=2;curveFitting=1;fontFamily=Architects Daughter;fontSource=https%3A%2F%2Ffonts.googleapis.com%2Fcss%3Ffamily%3DArchitects%2BDaughter;fillColor=#dae8fc;dashed=1;strokeColor=#6c8ebf;" vertex="1" parent="JqYsh3KlYaYfrgVsSfgZ-37">
          <mxGeometry width="307.45" height="110" as="geometry" />
        </mxCell>
        <mxCell id="JqYsh3KlYaYfrgVsSfgZ-21" value="&lt;span style=&quot;font-weight: normal;&quot;&gt;Item_Filho&lt;/span&gt;" style="swimlane;fontStyle=1;align=center;verticalAlign=top;childLayout=stackLayout;horizontal=1;startSize=26;horizontalStack=0;resizeParent=1;resizeParentMax=0;resizeLast=0;collapsible=1;marginBottom=0;whiteSpace=wrap;html=1;sketch=1;hachureGap=4;jiggle=2;curveFitting=1;fontFamily=Architects Daughter;fontSource=https%3A%2F%2Ffonts.googleapis.com%2Fcss%3Ffamily%3DArchitects%2BDaughter;" vertex="1" parent="JqYsh3KlYaYfrgVsSfgZ-37">
          <mxGeometry x="20.496666666666666" y="28.35403726708075" width="109.32" height="70.0039751552795" as="geometry" />
        </mxCell>
        <mxCell id="JqYsh3KlYaYfrgVsSfgZ-22" value="ID: filho_123" style="text;strokeColor=none;fillColor=none;align=left;verticalAlign=top;spacingLeft=4;spacingRight=4;overflow=hidden;rotatable=0;points=[[0,0.5],[1,0.5]];portConstraint=eastwest;whiteSpace=wrap;html=1;fontFamily=Architects Daughter;fontSource=https%3A%2F%2Ffonts.googleapis.com%2Fcss%3Ffamily%3DArchitects%2BDaughter;" vertex="1" parent="JqYsh3KlYaYfrgVsSfgZ-21">
          <mxGeometry y="26" width="109.32" height="17.763975155279503" as="geometry" />
        </mxCell>
        <mxCell id="JqYsh3KlYaYfrgVsSfgZ-24" value="&lt;font style=&quot;font-size: 11px;&quot;&gt;ID_Parent: pai_123&lt;/font&gt;" style="text;strokeColor=none;fillColor=none;align=left;verticalAlign=top;spacingLeft=4;spacingRight=4;overflow=hidden;rotatable=0;points=[[0,0.5],[1,0.5]];portConstraint=eastwest;whiteSpace=wrap;html=1;fontFamily=Architects Daughter;fontSource=https%3A%2F%2Ffonts.googleapis.com%2Fcss%3Ffamily%3DArchitects%2BDaughter;" vertex="1" parent="JqYsh3KlYaYfrgVsSfgZ-21">
          <mxGeometry y="43.7639751552795" width="109.32" height="26.24" as="geometry" />
        </mxCell>
        <mxCell id="JqYsh3KlYaYfrgVsSfgZ-30" value="&lt;span style=&quot;font-weight: normal;&quot;&gt;Tabela_Base&lt;/span&gt;" style="swimlane;fontStyle=1;align=center;verticalAlign=top;childLayout=stackLayout;horizontal=1;startSize=26;horizontalStack=0;resizeParent=1;resizeParentMax=0;resizeLast=0;collapsible=1;marginBottom=0;whiteSpace=wrap;html=1;sketch=1;hachureGap=4;jiggle=2;curveFitting=1;fontFamily=Architects Daughter;fontSource=https%3A%2F%2Ffonts.googleapis.com%2Fcss%3Ffamily%3DArchitects%2BDaughter;" vertex="1" parent="JqYsh3KlYaYfrgVsSfgZ-37">
          <mxGeometry x="177.63777777777773" y="28.35403726708075" width="109.31555555555553" height="61.52795031055901" as="geometry" />
        </mxCell>
        <mxCell id="JqYsh3KlYaYfrgVsSfgZ-31" value="ID: pai_123" style="text;strokeColor=none;fillColor=none;align=left;verticalAlign=top;spacingLeft=4;spacingRight=4;overflow=hidden;rotatable=0;points=[[0,0.5],[1,0.5]];portConstraint=eastwest;whiteSpace=wrap;html=1;fontFamily=Architects Daughter;fontSource=https%3A%2F%2Ffonts.googleapis.com%2Fcss%3Ffamily%3DArchitects%2BDaughter;" vertex="1" parent="JqYsh3KlYaYfrgVsSfgZ-30">
          <mxGeometry y="26" width="109.31555555555553" height="17.763975155279503" as="geometry" />
        </mxCell>
        <mxCell id="JqYsh3KlYaYfrgVsSfgZ-32" value="Name: João Silva" style="text;strokeColor=none;fillColor=none;align=left;verticalAlign=top;spacingLeft=4;spacingRight=4;overflow=hidden;rotatable=0;points=[[0,0.5],[1,0.5]];portConstraint=eastwest;whiteSpace=wrap;html=1;fontFamily=Architects Daughter;fontSource=https%3A%2F%2Ffonts.googleapis.com%2Fcss%3Ffamily%3DArchitects%2BDaughter;" vertex="1" parent="JqYsh3KlYaYfrgVsSfgZ-30">
          <mxGeometry y="43.7639751552795" width="109.31555555555553" height="17.763975155279503" as="geometry" />
        </mxCell>
        <mxCell id="JqYsh3KlYaYfrgVsSfgZ-34" style="rounded=0;sketch=1;hachureGap=4;jiggle=2;curveFitting=1;orthogonalLoop=1;jettySize=auto;html=1;fontFamily=Architects Daughter;fontSource=https%3A%2F%2Ffonts.googleapis.com%2Fcss%3Ffamily%3DArchitects%2BDaughter;entryX=-0.017;entryY=0.619;entryDx=0;entryDy=0;entryPerimeter=0;exitX=1;exitY=0.5;exitDx=0;exitDy=0;" edge="1" parent="JqYsh3KlYaYfrgVsSfgZ-37" source="JqYsh3KlYaYfrgVsSfgZ-24" target="JqYsh3KlYaYfrgVsSfgZ-31">
          <mxGeometry relative="1" as="geometry" />
        </mxCell>
        <mxCell id="JqYsh3KlYaYfrgVsSfgZ-66" style="edgeStyle=orthogonalEdgeStyle;rounded=0;sketch=1;hachureGap=4;jiggle=2;curveFitting=1;orthogonalLoop=1;jettySize=auto;html=1;entryX=0.518;entryY=0.998;entryDx=0;entryDy=0;entryPerimeter=0;fontFamily=Architects Daughter;fontSource=https%3A%2F%2Ffonts.googleapis.com%2Fcss%3Ffamily%3DArchitects%2BDaughter;" edge="1" parent="WIyWlLk6GJQsqaUBKTNV-1" target="JqYsh3KlYaYfrgVsSfgZ-0">
          <mxGeometry relative="1" as="geometry">
            <mxPoint x="161.79999999999995" y="390" as="sourcePoint" />
          </mxGeometry>
        </mxCell>
        <mxCell id="JqYsh3KlYaYfrgVsSfgZ-67" value="Base Nuvem" style="ellipse;shape=cloud;whiteSpace=wrap;html=1;sketch=1;hachureGap=4;jiggle=2;curveFitting=1;fontFamily=Architects Daughter;fontSource=https%3A%2F%2Ffonts.googleapis.com%2Fcss%3Ffamily%3DArchitects%2BDaughter;" vertex="1" parent="WIyWlLk6GJQsqaUBKTNV-1">
          <mxGeometry x="560" y="175" width="100" height="60" as="geometry" />
        </mxCell>
        <mxCell id="JqYsh3KlYaYfrgVsSfgZ-68" value="" style="ellipse;shape=cloud;whiteSpace=wrap;html=1;sketch=1;hachureGap=4;jiggle=2;curveFitting=1;fontFamily=Architects Daughter;fontSource=https%3A%2F%2Ffonts.googleapis.com%2Fcss%3Ffamily%3DArchitects%2BDaughter;" vertex="1" parent="WIyWlLk6GJQsqaUBKTNV-1">
          <mxGeometry x="590" y="235" width="15" height="10" as="geometry" />
        </mxCell>
        <mxCell id="JqYsh3KlYaYfrgVsSfgZ-70" value="" style="ellipse;shape=cloud;whiteSpace=wrap;html=1;sketch=1;hachureGap=4;jiggle=2;curveFitting=1;fontFamily=Architects Daughter;fontSource=https%3A%2F%2Ffonts.googleapis.com%2Fcss%3Ffamily%3DArchitects%2BDaughter;" vertex="1" parent="WIyWlLk6GJQsqaUBKTNV-1">
          <mxGeometry x="577.45" y="245" width="10" height="5" as="geometry" />
        </mxCell>
        <mxCell id="JqYsh3KlYaYfrgVsSfgZ-75" value="" style="shape=image;verticalLabelPosition=bottom;labelBackgroundColor=default;verticalAlign=top;aspect=fixed;imageAspect=0;image=data:image/png,iVBORw0KGgoAAAANSUhEUgAAAcIAAAEmCAYAAADxzZDRAAAAAXNSR0IArs4c6QAAAARnQU1BAACxjwv8YQUAAAAJcEhZcwAADsMAAA7DAcdvqGQAAG+2SURBVHhe7Z0NfBTVuf9/vElQ1I0G3Sgoi28sV9tsxEoQW1mKLaHYEq5tSYp/Ndhb3UBrE7jWxJdK0BaCtphgq4C92gSvbUKVJvZCs6hg0l5sllbLcitmsVA3CpIoSIK8zH+e2TPZmcnsZt+SDPB8+Rz2nDOzk92Zs+d3nvPynEGSDCJw5MgRDB06FEOGDBE51qKzsxMjRowQKWtx/PhxHDt2DMOHDxc51qOtrQ12u12krAWXvcTgcpccXO4S52QueyyEfUR/FQp6fJ999hmOHj2qC7HkffjhhzjrrLN0eRQSvZ6aR9/9xIkTymejVzVo073F6RqEmq89FmvcmKZyTEEt04m+Uhg8eDCGDRvWndYei5QXyznGQH/HLD9SGDRokHLf6HdBn++MM86I+KqNq+/rD1gIE4frvORgIexntIXi8OHD+PTTT7tftcGY11vamNfV1SX+IsMkDv3OzcTSTDQpULlOS0vrDtp0tGMUqNxedNFFpsfVOH2egYDrvMRhIRwgUl0oSFQOHjzYIxw6dKhHOh7BinKLGYYxQbW4tYHqImNepPx48s4880ylHqFA6ZEjRyo9JWoeBe05ahgIWAiT45QUQhIluvFakTILRiGLFKhrj2EYJhaMwmgmltECWb7xxMkSZyFMDssKIY0pHThwQAkfffRRd9i/f78u3t7e3kO4qFAw6G7dqt1Xsabp0VPrN9Jxs7xY0lReqEVP4070qgZturc4/aDUFny086LFjWn6oao/1mReKZClT59PTWuPRcqL5RxjoLFNs/xIga5Hgd6njtlGetXGo1QDjEWgMmwUx3ji9GoMsebT76g31PJ32gshiZMqaFpx04qcUeA6OjrEu09vNm/ejJtuukmk4uP9999XumHjZd++fRg1apQSp2KgTi7RhljzIuUnei5VzqqQxXrdRP9Wb/lmefT5SPRVkY0nGMU6nhDtvWplRZ+XKi/KUxsTajCm1UCVWG/Cqb5SWaPvbrPZcO655yqvFCifAjVQ1bhZHlVG9DminUd/i6C/98EHHyiBenaYgUEdu6UQSTwp0HlkGWvz6HzVWqZXNRjzja99QVJC+Ic//KFb0MyETg0khAzDnJ6oIqt9NcujKocqut7O6y2Pwo9//GPx15lTCWrUURlRQzwiapZHgkyGRkJCWP7q/+F3+4Yhs/YhfHb4INq//SjOeH8n3lg0R5zBWImcZ7Zi0BkjcMZz/wnb2KvQ+rX7MWL9T/Hn51aKMxirce0L/8BZnwRx/LlSXJg1Be9M/yGGPl0EX/2L4gzGSnzud0Fc+vcGBNc/hdEzvoNd130Hb9+SIY4yVuPfXt6PK7f8Au+/vgGXlaxC8Lwr4HWfLY6GGfKwjIj34L+W/CeOnGvHvmvzcGTCTUjrbMenz5aiLRgUZzBWYtzhvTiWdTOOy2Hf1V/Bxa1vwP9chTKexViTawd/hPbPz8TQq29E8JpcOP72EnzrVim9MYz1uCEdCEy6DeeMvxbvXzUNV762Cv7mV8VRxmrcMO5C7Jo8HyOvykZwRCZ+dvlhXJxhE0fDDAoGgxEtwmnTpsGZdS123foTHBsyHFf//mHUrv2FMiBqFdSJGfSqBjVtfDUejxTXvhqPa9NkvpsdU+Pacymo56tjOSrGtJYoBnsPqKvooolfwtNn3YDzT3yKeR/+D/5vx9+VY/FcxwrQOBfdP6tCn4+emzp+SK/GoM2PFKeum4u/9HXUXTgNF3e2YdL25+FraelxnhooL1K++krjfdp0pPON+ZHOpaB+Z20wnn86cNlll2H895ag9d++hot3vY4PnvkR3nrrLXGUsRqTJk3CsMLl2H/x53HVm9W4ZfRwzJgxQxwNE7VrdMYt38CBb5VjeNfHGHrkU3Rd7MT1f3oa//fXvyiVLlXqal+9Wdos0GAqDbSrr9q4WV604/SDp/5fKzIQM6j+1Skhv/lT/PuYYdh24DjShgzCU9eOgPxiSqT+citg9aU7NKkjFWVvxyfHcef/duJ7l52Bl/51FFedMwQ/+VyaOBo/J/PMvUQgAabvrIpxsnFaS0wNMK3Aq+fQ666zx+Gpj87D/7MdwLqP0zHn7AO44oPtPc5L5jUa9Gzpd5EM9HeMQf37ZiHaMQrqcbVhZKUG7LA5Jdhvvxqj39mMwNWz8LV9r+GxO/PE0TARhZCyb/jJf2PoBWMgPVeKrsOf4vM//jVGZl6Cn7msIT5UaGkQ1IpQwejvCinvjU/xVfswfFeuVLuOS5i/rROzLhqKb11yhjhDDwth4qRKCCf98RAWjx+OvNHD8PFRCbf9+TAWjU/DlIzEvvdAlLt4OZnL3Rc2HcIvJo5AdvoQtB46oTyvrdNGiqN9T6rKXV9gtbJHM46v39CGS18ux9tvePG5uUV45wvz8Nas88UZYSIKIU2tv+CCC0QqxL333ovHH39cpJhoqK0kmuFmVVgIE8eqFRILYXJwuUscq5W9vXv3YsyYMSIVZuvWrbjhhhtEKkREG5aE0AhdmIkN6h6wsggS55xzjogxDMOcWtDaUzM2bdokYmEiCiEtdjfCQnhqQRM1rAqNA1t5sgzDMNYmkhA2NjaKWJi4hHDPnj0ixjB9C83IjDabdqCxavcU3TNuQDAMlG3mzKCuUXIAoyXiL8Z4IsEWIcNYm5OhS552dmCYviaSRUiQtzQtcVmERCAQEDGGYZj4Ofvsnp49rAI1ItiiPjWIJoQbN24UsRBxC2Fra6uIMQzDnFqQCFq5S96qy8VUrHTvInWNEn/84x9FLARbhAzDMCcJVhZpWnJCk9ysQjSLkHbsaWlpEakoQmg2RkiwEDIMwzBWRyuEtFRsypQpIhVCO07IFiHDMAxzyqHtGiXnMF/+8pdFKsT//M//iFgCQrhr1y4RYxiGYRhrorUIzYTw9ddfVzaBJuLuGn377bdFjGEYhmGsR3t7u4iFOPfccxW3akbXfl6vV3k1FULyt9fR0SFSoe19VMjX3bvvvitSDMMwDGMttPpFqEt2aFsmLT6fT3k1FUJjt+h5550nYiHYKmQYhmGsitEiVIXwmmuuUV5VVCE03X3ir3/9K7KyskQKGD9+PHbu3ClSQHl5OUpLS0Uqdhpf34bPjoY29aU/q50KHC3dF1OGv+rWtwwYhmGYUwPyJ6odE/zBD36AJ554Ai+++CK+9a1viVzg0ksvxe7du82F0HiRnJwcNDc3ixTw7W9/G+vWrROp2Fn1bB0+PdwlUgPLIk++iDEMwzCnEr/97W9x6623ihRQVlaGJUuWwO/3Y8KECSI3BM2H4a5RhmEY5pQi0hhheno6LrnkEiWuQt2jLIQMwzDMKUWkMULC5XKJWAgSQtOu0Ycffhg//vGPRQpYuHAhfv3rX+PAgQMiJ7Se8LLLLhOp2DB2jd78pYki1vf8818fYueuf4oUd40yDMOcqtx///147LHHRAp4/vnn8Z3vfAdtbW14+umn8dBDD4kjwNy5c80tws8++0zEQtDaC6PopWIJxaWjL8DYMRf2S2AYhmFOD4xdoyNHjhQxc4swJiGkTUj7QggZhmEYJtXE0zVKKyJiEsIzzzyThZBhGIY5KYgmhKNHj8aoUaNEKgRbhAzDMMwpRTQhJIxWIQshwzAMc0oRbYyQyM7OFrEQLIQMwzDMKUWfWIQ0RnjxxRcjLS1N5EDZviIYDIpUbBhXapw4IcnhhJJPr5HSsZ4XLU1xhmEY5tSnz7pGiVRbhapIHT8eFi+zdKznRUszDMMwpz7Hjx/HsWMhn9bEkCFDlKDliiuuwPDhw0VqgIWQPnB/BRJEhmEY5tRGK4KEdhtBLWPGjBExS1iE/RMAFkKGYZhTnZNOCM0st74KbBEyDMOc+lB9r8XYLaoStxDSZBkiWSE0TlghS+24sNhKy0px5ZVXpDRory+xRcgwDHPK0+cW4bhx45RXlUAgIGKJQZNZQhabLFSyxUYzUVMVjh49qrn+ceX6TBS6fKi6bRqy3QWo2i7yGCZRtlehwJWJyUvC+5jqOBSAb7sfHdbYnpQ5heh3Ifzwww/x6aefilT8kKWmhr6w2NRrH5dFkC3C6HgfnIOi573wba7BmroIlRfDxEQAVQ+WoWZ7G5pXVqNOXy/JNZUXJdeNQ7ZrAtJdRajT7/rGMEkRqxCSqzUVUyE8cuSIiEFZOzho0CAlThc0bmqYjFV4jKy1YyeUV7LYSHBTFeizhq7PFmEsdMgtdBXf7gD0fhkYK9KxtQpFedMw87YSrOl3K74DdQuzkS7XDYMGZSI7rwo+cYTo6hIlaH8DmjaHot3s9MG3U41XoWSZVyQYJnn6xCJUxwdVjFZha2uriPWOcU271iIsLX0ALb6/oqVFDil6DV07tI6QF9THwd4g4nOVwPQ/zahYUISq9V40PL8CS2uSEZMudOxtg29TDWqeXYGShUUoyM1G9nVycGYqDWEKmc5QXsFT1GhqgnedTzSY5Peub4L/kJKQccCV5RDxAHxvGxrLcuO5RUSJwCFudjGpo0+EkKwrLcmNE+rF6ARZbP0UTjch7Nrfhra9HXIVlwCbA/CLKGNVgujQWIGBtrYYrHgSPD+aN9SgakkRim6biWzXONmqG4H0MbJVd3MBCu4swYonq1Dzimy1vUmWW5t4ryx3ZMnJef4g5eWifH0lCmc4YZf/uRbMQa7GneMER9hzR0vAUJrkeoqlj+krYhXC9PT0bh+kg6kb1Bj6Tgj1aC1CJSieYEzSkV7VEMPx00cH21Dz3WxkjspE5phslG0S2cypzfPlKFyyBjXrZKtOBEXsFs7HHLdq2ZHgTcDkWwpQ9GAVqp5vgG97/N3gate5bYoHqxt2ICgF0bIyD7bQYQX76MzudMfegFwqI5MzRrUeGSZ5IgkhaRsd02qdOk44mE4yhv4Swu5ZnceOh8bz5KCO66lpNeiOq8H4Ps2r8bgknS5u1nagZbPaZRVAV3d3VTwEEdwrooxFcSBziogq+FH34HwU5MtWnQiK2D25BnVyedBadmbYxrrgmijC1DwULvDAo4ZFFVhdU41qEeoX5upEzxSHA93+/fd16Lra29r0He8jhoZ9GDNMslB9r0VdR0jaRnGt1qndo4NVP2za0J9jhOo6v0gh0vF433f6WIQd6NologkjX4P7riyOg7QmBuxwyuKWO08jaBtbENwjN3aCncqQAYX2QAtatongrcXqlZWoVMOyYhTOzUe+CLkTe5VBPVuDcpMsTDuPCTJ9SCSLkLSNxrq1WqdO/uznMUI92nWEff16+liEzOmBDQ7ZiuuJHa7ZHlSsbUSLInRB7JDFrf45jaBNd8E+2g67vb8sMT8CmsaZ83KniDFM6ol1jJDo7hpV/o9CZ2eniIWgLe61W1rQOkJaTxgberMsZLVJ/fJ62liEchngNcqnBznX6DcXxXgPaoNBtNRVovgON1z9JnQmjJctVhFV4ELJ9BPxCKFK3EJIpMoqDFlr/RNOm1mjOwO6bqgBpasNzetWoOS7czCNpuKrwT0H85esQfPu2GrHtjcbULV8DXz68t2ndLW1oa3N4rV3jgt5Iqow1Y08u4j3E3X3hJZWUChaLzIJue4Jy7AXgXdElGH6mD4RQnJXZsS4qP6DDz4QsegYtUg7hhdxJqgx9HZehDSvI+xHuvyouX8mssdkYnJ+CVY8UwcvTcVXw+Y6rHlwPiY7RiDTPR9Vm9oiGwxvLkXedTNRtLgEa14ReanmWBf8m6qwlJYTiHVzIzIzkZk5Qo5nYkJuEeqSHnftA0Znw5kl4hYgKDceTirk5x7YWoMVi0Mza8eNCov6oFHjkJ1bgKXPNsPq7SFGD9X3WgYP7lXmErMIL7roIhELsX9/Yj6SdFbbCU3cLB0pP8Y0C2E8BBBMcEV924YyTHNMQMFjDfCZFAv7eJey2FqdbtG2eQ2Kbs6Ew12GBrN69FinEMkO+Hf2XN3YtbcZNctLQgvAlTVx6RjnClmdRcvr4I9SidF71yychnGy4E24uQhltJygx+zKNvhfqcKcWUVosNwcjxxk52gmruwc2PWfHYf0u4Jr8e+2TD+F/Ny9qPpu6LmPu7EAJctDM2sD2vK6PwDfKzUou3MyMh3ZKFjeLGZiM1bHaAEaLUQz+lkI9WKktdj6+pWFMOQ9pC1CaNcJRgDVC6kbcwIy1RayJui6wLrpgm/5TLhuWQqvVksyHHDPK0flxha0d0oI+lvQ4muV4+1oqStHflaoIm/bvBQzXTOxwugqbGQ60kW0ZU+4Mu3aWSML6DhkjpmMgsUrQgvAlTVxHQhsD1mdVYvnYIJjJpZuNVRhbV6suC0bDvm985/06itAQv7MyjKC8Zp+xp1VaDC6CrMAk69xi5jVMCzvkK2vbhyZsoQPANRTITd8HGOmoeiZns+dlpC4ZxeKZSP5yFWff5sPNYsnY/I3q/q1e55JDJoNqoUMod5IiRB+9NFHIhYfBzo+xUcff9ovr6eNEL4TgLmzrTR4H6VF9uZh/rPiNEHIi4g/6kJoLSSC7sUN4fPtbnjWNiG4pxWNz5XCM90Fm3buRpoNrtmlqN7mR+3dYhZhWwNK5hosL/lNqs0TWpjdgeYlM+FwFqBqk3ExeGipgFKZzc0JvU++ZtlsD2rEiYHn5yP7mmkoed6n+262rFyUrmpEy75OSPtaQ8sIni2Edl5mlwUrQXtOdlhUBtgjkFfnQSYNacNEVKZTK4RD06Cfi96Trv3kAacKSxcWoUiMMc+8jRwEFMkWXHRL34yOrXJDi3oq5IZPuIy6kLegAtVbdiB4MLSEpLFutVg2Uo16fxBBbzlyhR76f1OEgoV1bBlaHMtbhEYpCrx/ALvl0B+vJIhM39CxXq4gFntFBWFDzoJatO5pROUdOeh14uJQO/JWlqNQJMnyWrNOI1GjZaEWUQSCqF8+B7kPagSXlhFM92D1llZ0Hg0tFVAqs1VFyBVnYH8NatcFZLGehuzb1ui7bDNy4KmRK0JfPcrvdsOVofnAk2QrIEPEZQK7B1JmIpDlDC9cp2UKb4toClAmDAmXbDXrGuBPQgGaNda8kW5Ln8Zq1y9FQY5s6Y8iDzhFKHuyClVijLnheXIQUIUViqUvW3Xr/DFNRm2TBWzyjdqudzvcC6qxQxa+2pXFyJ/ihF3jHk6LfWop6l+pgFuUA/9TJShbz1JoZVImhLTjhJauLn1xu/jii0UsRMxdozxMd9KQ/3RraNG1NvgaFc8iBVozaX8dShZXdVsijrvWoGFlHhy9T9Tqpm1Li26ma8Sxpu1LMb9bcGVIxF5sQevGShROcSBN+zdtLmRPFXGZwPr5GrEOYcsqRHVzEyrnOjUzHLU4oXGZaVHkz9j9Pb3wJ6DV5JeWHG6vWV6C+XlyY0E7YUi4ZCvIX4GGGH/m8dLREYR/8woUXJeJCXllqPlTDG7f2ryoypcbKrKF1halnqNGmvub4fJJZaa4wY/Glflw9tZIU8kqRuVitQs6gKpnq60zM5vpQbSuUSrXZpgK4fDhw0UshFEIU9U1yvQveatCXkRMw8Zi3bqvto6u0KJrbchyK55FcsaKk2S8y8qwRrtYOqMLDeu88JmMQ4aDD17FF+Z8zJErv0z3Un13biwutzLcKF3fgMpbI7lXccI1MXzMt0kWCRFXGO/Bmk2rkX+5SJvigENzXNe9ZxlkIRwvojLebdF2oaBxYrr3a3QzJUeMCjncnr94Bdasl5+dqTs2+V5onrspsU7WMa4xfH4+JrhLULNdK3+hbu5ut2/a8dpuOuB7cg7ckbor5UZa2f0aEZTvlefpBlTM0EwwihHnXYXIF3Fs8KKBXRBalmgWYaQZpAlZhLSoftiw8ABArBbhxReeh9F2CufH9XrZ2Itw2aVySOErY0Bu/UeSlIjsXSO3jvVVX8NjZD3IVoXJOGQ4ZGOa4gtzDereNFa6OXDf2NsnscF9fyXKp0Sv0NzXRZpIIleIy8qRp+n2jERmRtgkjNa9N5CkDQ3fh8D6NViqOt5+aqkypqZYed27TNC9n28+U9IE+/hc5D+yGk17KpEXh5WvCLS2kbFLs75Vvk7kpo4TecsaEewMdXN3u33zB5UGWyc5DNhYCY/m2fufKkO5iXN531MVqFL3PZRxLqhA+ez4RVBB18MQRIdZW4GxBNEsQuOxbuTC1YNLL72UOjG7QyAQEEfCaM/JyMgQucyAU+fRPTtPncjvjaO1UqHmfe5lO8SByARX5en+VvLBJuX8qFFqF9cPUSt5jOdNKpWajorD0XinQpKlUP9eOdjmVRv+RmR2LHOH33t3rci1FrrPmGCwjXVJrql5UuECj1S+qlqq37JDCh4UfyAKtXdrrjO1QtKWmsjHTJ6pEhxSYU1QnNMLgUopV/Nem/HZHK2Xii/XXDsjT6rsWY3FRfj7uKWKt0QmYznefffd8HOXw7hx48QRSWpv1//yH3roIeWchCxCQts9mug6Qib1JDyhI2or3YwOeJvrRLwnym4GM/LDOxjIoXC2O9zVpQtu5N1VjtXb/Gh61N09SzQSufmFyInFOrncCWcPqy8HJQvze/0bplhw1ii2V6FsbSyb8lJXI91n+Vk8UqmM9Tb6aOy3HZ2ypaU43RbOtkvvzkdulAkkEXkrOa9GtnnlqJgbo2ucsW64NWPAHW/5dTvkY7NX5wTBdmsBPL117TKnBNEswri6RnsbIyS0/kaJjo5eh7eZfiDhKf4dXYi8HNqMJjSZeHqxT/Wg+q3OUMXaUB3ewUAOq+saw11dutCI2qdLUTjRpBLcZRx3ykfBvFg7cR1wXCOiKlPnIG+iiMdLj88ysHRsLcO06UWo03T/qdhkociXBU+27BCkJSGK8226z/KzeMCjjPW6s2js1xZnAygKcns48VFUh+IQPPYGin4M2LjDReBtnyZtQ8F0nTO6BJBFvltY5XuWYA8r0/f02xghYTyHhfAkZ29Qt66uV972w2/oCHDeXQu/txL5V6esau1Zs86eDHcSlZB7Rq5chZ4C7F0jW9hL4TXpjHE/0oJgoBHVsuAplp12SYglkIXEOEnp8jzkzhDxGHFkRm4Q6RuEuZissR4Tw4+AanJe7oAztGkBY0FYCJmB43IPyh/V71LeF7iuzkaMnWcyhgkbcCHnxiRk8GhXEhZPihkpV8ausKu6MA64JrlSZ+XFhXx3NAKkncSj7zalCVMiKrBNlxs4Ih4rjrHaZ6nf6knH9GxoPdElxCve7uUjiXxWpv+IZ7LM0aNHldeYuka1+xOqsBAyOm6cjNy+VkGZ9LPj+SOGyjFjMiZPEvFEMHS/DSg2N8o3hlzVrb5D5Ck4aALwACGLnaab1jFGs01UL92m2VekYMFmpD8gW3Bxz4jWEUDVM2vEs3egcFay3axMXxKPRahuIRiTEB45ckTEwrAQMjo21KMuqSLQhbZNVZh/8zikOzVu1g6168Yu7fYkannZgjrltoRNsyF9YMy/FCJbsVcnIFVXOCJaZpl2Tb9BW5zd/gZ8y+d3e5OxTfegMM4uXKZ/iWeyzL59+5RXUyE844wzRCwECyHTg6tdcGm7HffXoPzRWGYvGjjkR51c0UxzZCLz5iKsEf5Du8d4gh262YDpI+OxCGUL5S0RJZK2DNrR1Z/F/FAb2rZ7Q2sCN/iielAJY0fmSTd+JVuxyT0YGf2eh7ZrJoR9sG7xoymme2ekS1mw3+2RKMONsmXFp15j6hSDLUIGzrFJ1ygx4kbBbfo9BPzL52Dag97eK+xDATQ/uxQFZP2dPQFzFq+Bd7coP+Qx5pnYFrv3ilwm2zWTSXLGxH9v/AGtuLchmAKPIiEfnmEPOyR0VUtCDqWVxe/Xib3xzpYbB65pKMgvQMEt2Sh4MpaO2fQBnNEoW++HRDQujGO5KSArFzPVbvD9Vaharltc0QtdaNu6BkVuB7IX1omZwuSVphbFFtr/kTEnmhAaXaxFtQh5jPAkJhb3ZDEQ2Nf7hoSuH5WjWOPeSy4F8C6ZBucVcuW9pEpx1Ny8M+THsuZZsVM9+bE8exwm31mGGuPuEePzUPlKfa8eY2Jmt35d24gU3RtTjsmVpxA28tlJoqbskUg78gvfnWoI+fAMe9ghoSt6MORQWnFx9qaZx5cEuw/7FR86EtnHMssWdqyeBPo9D13Ivy08ect7vxvZt5ShapNsWVMjZD9N7KFnJholiuVdhaVyGZ1MvRM3zkfVZtGhSv5JX/aiMlGvNEy/Eq1r1IhqEZp6lvnud7+rW5n/1FNPiSNhSktLdecsXbpUHGEGlI3Fklxddj+XRD3LxOxF5Z1qKX+85n0JBbvkXlAt7egU19Rg9F4T8/chXizUvdf9eKs4EDs67yhwSaXN4kBnu9SysVIqvytPco+3a85JJtgkR5ZLck3UBreUd5dH8jxSK0X69LrPmFUqNYn8/kB/fwzPR+flyCOFS9QOqWKq5n0GjzQx85bec1DOoy3igMoOqXJWcs/GPlX+3O+IyzEnDbIxp3uOsjEnjoTp7OzsPp5w16g67VRF63uUGUCcsuUgonEx1AGHdiPVWLk8H9W+FlTOc8WxrEFA+8H9iPxYBiLuBtB+SN/TEM9O575dO0QsRPLdxsLi2VWFmWPSkU272tMWQWZOqu204Nul8a5TjsqaasWji7LIXd3R46DG8bnUjlb5XvZ0NkCL4PNiG99MT+/zJSyRcSAtkjeay8P7SlLPQbt2BhStyxPRZOjpC9YJT10Tahe44yybtLVXISo3BhHwViIv1d22TJ9jdPhy+PBhEQujdosSCXeNshBalNEFKFmWDxf98jNyeqzXiowLuTcnuG94mgue51oQ2NOE6mUe5E11Rqh4yM1XLvIX0Waorejc04LaRwuRMzpyl2XmeGeokpSFJfeuChTPil3M0kZmwqGONWa44bhCxOPAZtNU0RlyRU8ftasLXSPJNZz8XWSRK162Wha4ejTRRq5B8uIii1pwR0jIur3rlMIzN1/x6KIscld39IjXjVlvDJW/t4j2B3k/rIVsFSN3diHK5XtQPl0c0ECOu0tXlmlmeKbBcWPY9Z7nugQbKOPlZ9DdNW+Da2iavqudkBt4eSsblbK5+pFCuWy6wmWim9BOF7nzPChXNmcOonXjanim2wdoPSaTLLEIYXe3KEEmopH7779fZ1YuWbJEHAnj8eidO1dWVoojzEnL0Vap9pFCqfCuYqliY/zdiEY69wUl2eoJhRgcOPcJRzuVv98Zi5PukxTlPvsaJVmMpZYYfVafOnRK7fLzbTfpVmdOXz73uc/p9GnXrl3iSJhXXnml+7ipRXjmmWcqr19Y8mvc+MwWnD/qAiX9yN+78P2W0I71bBGeglDr+YHVWP20bHlNT7YbUW73Zwirpy8sn1iRrQT6+7pNe08xlPus7BWZG+oJOK1Ig01+vjY23RgN55xzjvLq+s1uzPpOoaJXmz88huyN4WnNWovQVAjPO+885fV4/VM4MsIG70U34ceyCP75o+P48TWhEmfsLmUhZBiGYayA2jWa8f7fsPfrD+CPnTYs2t6FVdeOUPKJmIWw5c9NGF3/U+wenI6X/3UMa79wJmzDQusw2CJkGIZhrIgqhAfXPYqRHXuwqu0sPHz1cEw6P7y0otfJMunp6crrpZdeio4p38HwE0dx2cjB+Im/CyeUI2wRMgzDMNZEFUL7tFtxwD4Bk0Z8ipX/+AwfdNGQYIiYLcKLvvl9dFw4Hjf9/QX86voR+FenhBU7Q0sp2CJkGIZhrIg6RvjO9f8P47f+ErdhJ750wRAU/Ck8e7RXi1AVwnde/i+03/9VvPE/G3DmkEGoyTkTc0aHBM8ohEb/pAzDMAwzEKgW4dElX0f9zx/BP//5T5ROSENldnhW1bvvvitivQjhvp3bEfjHTnzyySdKeuggYNzI0Fu4a5RhGIaxIqoQ/mPbG8p+uuo6wvHnhMYISb927gzvGWYqhDabTeec9NNPPxWxMNw1yjAMw1gRVQhVjAvq//rXv4pYCFMhJFSrkDh0qKdL+ffee0/EQqgTbBiGYRhmIFHHCFX6TAipz1XLJZdcImIMwzAMM3D0i0X4r3/9S7e1BXmiOf/880WKYRiGYQaO3oTwb3/7m4iFiCiE5557roiF9nNSJ8wQxm5RtgYZhmEYqxC3RdjZ2QmzoPobVSErUD2mnXZKsBAyDMMwViHaGOHu3bvx8ccfixRw0UUXYfCIESNgFmjmqBbqHlWPBYP6bajHjIl5rx+GYRiG6VOiWYRGazA7Ozty1+jIkfrtAj766CMR465RhmEYxrpEE0Lj+KDL5YoshMYLaYWQZ4wyDMMwVoWG9oYODe+9pl0LH5dFGI8QctcowzAMYyW0Ez7b29tFrKcQJmwRctcowzAMY2XMhJAsw127dilxgpb90S5LcY8RGmfcECyEDMMwjJXQCmFHRweOHDliOj5IxG0Rvvrqq8qrSlZWFoYPHy5SDMMwDDPwaFc+0GQZsgrNukWJuIXwtddeU15VbrrpJhFjGIZhGGugtQiJAwcOYMuWLSIVgibKEBGF0LigXp1+arQIv/SlL4kYwzAMw1gDMyH8/e9/L1IhbrjhBuU1ohCmpYU3MCSof9Xv9ytjhFrYImQYhmGshpkQal2FXnXVVd0rHuISwqamJpEKMWnSpB4eaBiGYRhmoDEK4RtvvCFiIaZPny5iUYTQOAGGhHDr1q0iFWLKlCkixjAMwzDWwSiE9fX1IhYiJiE0swiN44Nq/yrDMAzDWAljb+Xf//53EQMGDRqUuBBqxwfJ+TaPDzIMwzBWxGgRavniF7+oaJhKXF2jWsga5PFBhmEYxopEE0K32y1iIeKyCLVwtyjDMAxjVaIJ4Ze//GURCxFRCM844wwMGTJEpPRCSMfy8/NFimEYhmGsRSQhvPjiizF58mSRChFRCAntovrjx4+LGBQRvPLKK0WKYRiGYaxFJCGk8UEjUYVQO5ioZe7cuSLGMAzDMNYj0hyWuIXQ6GaNoJmiN998s0gNLCdOnBAxhmEYhglD81yMPrOJadOmiViYuIXwxhtvxI4dO5Q9nWiD3mAwqDjkJtc1XV1dui7UvsY4gYdhGIY5vSFd2L9/v7Lcz6hhEydOxBVXXCFSYQZJMiLeA9qw0LgbfSwMGzZM6VZVA30Ys7gxTZNwaHv9aIGurcbJIqT3q/m05INaAdpXbVw7+aevoQbBsWPHlL/LMAzDmEOb5R48eFAJhw4diuk12rGjR4+KK/ekuLgYFRUVIhUmqhCSMEW76MmGKpZacTQKJgmrGlShTiTQ9Uio6dWq0GaVvBaUYZjeoEY9CVaywUy4okhQyvn+97+Pn/3sZyIVJqoQUiVp3I2eiR0SXmpMpDqYWbuxxNVXugbR1tYGu92uxK0GWdSDBw9WXCExDBMbquCQyFCIFKdAW+up5/cWTpVhqLq6OsyePVukwkQVwpycHPzpT38SKWDkyJHKDWRObkhcSBTVLuxookmvatCmox0zpiMdI6GLBP3wqMu7P7uz44Gs/Wifn2EiQWWbREgbOjs7u0VHFSpt3JiOFO9P6+pkgOoQsmZVNmzYgK997WsiFSaqEM6ZM0dRUJUXXngBs2bNUgYiaYKMWVCP7du3T4lToAfFMEbIMlWFmII2Tseoi1nNi3RepDiJrWpBRwvUGEgEqrjo7zEnP9T7QBP9SKDo1SwYRUubjpQXKZ9nuycH9VRSTxaFCy+8UHm94IILugPlqXGn04k9e/aIdwK//e1vFV0zElUIaeH8unXrRAp49tlncfvtt4tU7NCMUjOxVIVSK5pq0Ko4w/QVZB2bCaRZUCdpqVYq5VGcgpqvDb3lacestUEV8lgDXVPFqpO06HPRfIPPPvusx6tZXjznUjATL22IJnJ0HWbgoN9gRkYGzj//fCWQkKkCZyZ2Z511lnhn76SnpytzIVSqq6tNvaJFFcI77rgDv/rVr0QKeOqpp/C9731PpPqW9vb2HuJIgfJJWClQnKxNNa0GaoUxzOkCddGSGKoiq8bjyUtkLJaqDq0gkdiowmQMJITMqQ81wFRBo6AVuEh55513nnh36qGyrS17kYy5qEJ499134xe/+IVIAY8//jjuvfdekRp4InVP0Q/TKI6JBOpzZxiGOR2gxhAtQKdA80G0r8a8SAJHx6wCdUMbrUfSs//4j/8QqTBRhfAHP/gBfv7zn4sU8Oijj+JHP/qRSA08kYQwVVBfvplAGoNxDIACWaoUqOvFeIxazgzDMIlC9Z46hq59pdCbkEU6Hk+X48nAhx9+qHSraiE9W7hwoUiFiSqE9913H37605+KFPDQQw/h4YcfFqmBp6+FMBmijdXQMVUUSSy1IhlP6O29DMOkDrU7mcZ2ta9medpjNJasilUkAdO+RjtGVltfdiWeSrz77ru4/PLLRSrEsmXLsGjRIpEKE1UIH3jgAZSXl4sUC2E8RBPC/oK6iNVAn0WbpkDu8WgGljGfgtn5aoh0LJ58uj9kcVPxM3ul4xRXg9k5ZnnJHtOeQ5WOupbRyq8UqMKlilpNayfyqEE9J1JazaNKnII6SShanN4TLwcOHBjQypw+t/o96VUbp+dPv1masGQ8Rvd1oOE6L3a2b98Ol8slUiGWLFmCsrIykQoTVQgffPBB5Y0q//mf/4mf/OQnIjXwcKFIDisvqKfuY6p8Eqlo+wOrlj0ud8nB5S5xrFb2tmzZ0mOniZKSEixfvlykwkRt4hhvOHuZYRiGYU4GzOZiRBoyiksIaWIIwzAMw1gdGoIxQkt5zGCLkGEYhjnlMBO9SDP2owohDRhrYYuQYRiGORnoM4uQhZBhGIY5GTATPTNxJAYdO3Ys4qzR+vp6fP3rXxcpYOzYscrO9FaBvihN47YqNIOKZqBZFVpwSr77rIjV752Vyx6Xu8ThcpccVrp/zz33HO68806RCjFz5ky89NJLIhVmUFdXV0QhfP3113HzzTeLFJS1P++//75IDTy01ssKa3tOVsjZ+ahRo0SKiQcue4nD5S5xuNzFDvkVJTehWr785S/j97//vUiFibqOsKmpCTfccINIhRyYRjItBwJeU5McvJ4rcXgdYeJwuUscrvNiZ9WqVfB4PCIV4ktf+hJeffVVkQoTtWlB/ue00Jck35kMwzAMY2XMjLaEZo2SQ1Yj5N+SYRiGYaxMPJNlogqhmTdyFkKGYRjG6vSpRch79DEMwzBWJ2UWIQ0YGwdm2SJkGIZhrA7tGmLETByJqEJIGK1CFkKGYRjG6rAQMgzDMKc1LIQMwzDMaQ0LIcMwDHNak1IhNC6hYCFkGIZhrI6ZECY0a5RgIWQYhmFONsyEkLyjkb9WI70K4ZlnniliIVgIB5g2H9YsKcDM67IxITMTE+TXaXlFWLGuGW3s/Y5hGEbBTAgJs0X1cVuEhw8fFjGmv/E9NUcWv2zMf7AGDW/64G9rg19+9a6vQkn+ZGSOycbM+2vgZ0FkGOY0J5IQmo0Txi2E5P2cGQA2laDgnjr4RdKU/T40PFaACY5pKFrnB+shwzCnKym1CI1do2wRDgQBVD25QieCzlsr0OhvR/u+IIJ7WtC4qhR5E8XWNm1eVMkW4uQ7axA4FspiGIY5nYi0QXDcFuHa945j6LVfUZZQkKu1L313MT76kn7HX6YfeLMG1RtEXMY2rxpNLxbDPd4GW4Yd9tEuuO8uR+02WRS9FcjPsslndcD3bAGyc5fCx6YhwzCnGWQR3rC8DmMuHYtBgwbh+q/MwsRnmuO3CG+5aBj+cNbnMKWkAjcteBgffW0xrvjo7+Io01/4N3vRLOJADkoW5oOkzgz71GJUNzdh9R0u5ZyOTWVw37ICPrYMGYY5jSAhPJZ5OcY8Uouv3vYf6PzeL3BhRyB+izBj2Al8f6gf73/+FvxzSiGufK0K/3i1Xhxl+gv/O14Rk8lywz1RxCOR5kTh2iZ4l+WCOks7NpWj5Mmoo4sMwzCnFNSLeU7N/TgxaDB2f2sZLn53K9555uHExgg/GHw2pCHDMPjEMXw88kLeob7f8SOwS0SJnGzZJoyFNLgW1aPpuXw40QHvqjXQyGkMdKDh/mnIzCxAzX6RpeVYFwLbffDv5/LAMIz1ICE8POwsdI4chbTD7ehIvxQYMjR+i/CtT4Bff3Yprni1CldtXI59rq/j/JvmiKNM/yAL4WYRlXE7nCIWG4551ahe5oZtlw++t0VmDHS9UoaSx7xoa6vBmmd7WpPe+7MxzpWNCaOyUbS+Q+QyDMNYAxLCg7c/jtHvvo5xv5Utw+FnIuO+5+O3CPd2SnjIthv/88vl+P3aKpy7ZgE+6Oq5Kr/v8WOFmxaPT8OcJQ1oOyZX1Pt9ePXFX2LpwiIU5GYjW1lgPkgZFNWHdKXCzr5uJgrkc5c+1YDmnR2n1dIC16JarLnbiczRIkPl77/ATHHP0h3TULKhTRyQ7Un5HgdF3NssC6KIh/DD96Yqjn5ULS6P09pkGIbpW0gIz218Br4nSlD33zX47Od34cS72yFJkjhDg5wZka6uLmnr1q30ru4wZswYcbQ/2SFVTFU/g01yjLXrPlNCwe6Ucu+qkGr9neJvpJZjx44p9y9p3qqQ3JrP7akT+fFyVLxq+POPp+juSc4jLeKIzJ5KKU89luGR6kV2iHrJkxF+H+CRasWRVEH3ju6hVTl8+LCIWYuUlbs+JBgMipj14HKXOFYre/v379fUUeFAmmak1zHCc845R8RC9O06wi507G1DW9Rxpw4Eduvtkx5kOOCa6JKDU5ksYkqbHw3PlGCOMxPZ+SvQbDYOdiphsqTmkjtXoPZHecgZa4NtbB7mzHKJIzKjnXBcLuL7/fBrxynJnj7V79dJQJf8XJo31KBmHYXTr6eDYaJBFqEZQ4YMEbEwvQrh2WefLWIh+syzzN4azHdlIn1MJjJzymLoarNh7Be+jsJHKlG9sQXBYKdi8iphXytatrXIYQfktqeS1xncgaaXK1F+Vx5cOnXsgG9dCSZfMxMr3jzNqpGhlyDv0Vo0BdrRHqhFcZbIV3Ag0yGiCCAYEFEzpmTKZzPJENhchaULl6Jqc7QbLXPIj7rlRZhzXSZGjJqAybcUoCCfwkxMdqZj9LXz8LPXPhAn9zWi4aoGdnbLWIh4hLDXrtGPPvqoh2nZJ2wsluTKVPwNY1ebtmuUQqG0el9n4t0ERzulHTWlUm6WTXNNOWS4pQqfOCdJLNc1akJvXVS1d4f/buGLIpPQdptSmFohP6HUclp1UUXthhZ07pCqF7glh65LOlIYL5eTdvHGFCD/XoL+Jql+bYVUvCBfyp3okpx2s78rhwyHlDO7VKqOMuTAXaOJw12j8ZGWltajjP7lL38RR8PE3TVK9MkOFIe6ZLsjVtKQnpEm4gkwNA3OueWol63GarHwXGG/FyVzi9DAkyB7ENitmTnaIVsCIsqkAO393K90POvo2LoCc1wTUPCkFwGlS9oGl1x+a31BdB4VPR6BRlTcqs4o3omq+ysSn8DU1QH/1hqsWFyAma5xSB82ApnOyZh5ZwlWPKk6fBfnGtkfQPP6pSi4cSZWbBd5DDNAmFmFCXWN0oxCY/foKbMV01AH8td6lRmV3eysQvmTPpGwAEnofSpp2aNpplztQHyLOJiYuTxN5zWoY30R3LNLULdTZGTkwPNiC1pqSpGXZUeaGPtNG+tG8Yv1WPm1UBo7G+D9k4jHQNubGuEbkY4JNxagZLksetsDPRo99vEu+TMVwrPAI0Ih8iY5dJ+bGpVrXuS5xMzAkjIhJIxWYZ8I4bGBGl+wIW/lGpROEkmZ5rpajUuzAeZyvej4d8duNyeLY0x46X7HgD2f0wwaIxdRbJctwe9WwadOTBqfr7jPq7w10oisA1OnTBVxHzrU9S+9sbkM7usiCZ8Njqxc5D9SifotO9DeKSHob0Fj3WpUrqwUYTVqm1vhrynUjBXLVus12SLOMAPDSSeE/VnB92CowX/ndj9a9oq41Ui1IL29AtPUNZdu/Q4XaUM1hWhnQHeM6WOONaPs7hJ4hQjaZ5WjaUs18tWZvBFwjo1/2pL/zWbNs7XDOTUPhYsqUK0IXztaffWofsCD3ClO2KL0UNgd9vBvaHwhCm/V2YgM0++kVAhP2a5RDbYZM5Er4rL9Q8MkFsGGtF4qv5SxJ9i9iP5kgRwreJ9aiqLbZiLbmRkSdBEyndMwZ+EK1L1tcWtWbtz0mIu9uRY1StemHe4f1cNXV4qcDOVIVMINyhzNrN/oOO+uRpCe/T6aeR3EDm8tVi8rRn4vwqfjmA8rHpStVyXhhOdR2co03wWHYfqNk69rdKCxOeDoXj7QgsAAGqh6MpE5RkRl2g/2oULvijIJ5q1AHJOZ+hhZOPzrysQSgmxMu6cMVc83wLdTP4OjbacXdU+WYM41mRh3cxHqdGshLUQg2KMrviszF+W0LOhgEI2P5sIek6h0YPvbqj++CXBeLaK9MZK28pJDohPQumQRzMtFySYqPTa4l1WjcjZbg8zAw0IYN0F0WHKWWzrSNHWKb3//2Wy6bjbdbEYHMqeIaD/TtnkFCmQBnJC/FHVvGqcu2uGcmIt8MYmjcHYOHIoV1YHApirMyZmMklcsY+pHJe1qN/Knu2AfKTJioaMBDb8W8elOuPrBIut6swoFOW7hnk8WwQcaULtI45iBYQYQs1UPKRPCrj7YgcIfGOAZZm9rx8CyofNt3dWhLBjuGpA9/ezI1DoA6NOxOj8CWsfcQ7UWgvzMu79/GtKGiWgklCn4DahaUoSihfMxx52N7NwCOS6nF69A3c44y9CxAGruzIbTXYKa7aqY2eCYno/yVY1o2dOOTurW21aPajGJY3VdE1r37OjemxH7m7HitjnWntY/PvEZuYHnq7FOxN3Tc/vWyUGXHzULp8FxXZF4HnbkLvOi/pGc0L1mGAtgs/UsjSkTwk8++UTETh1862vD666ycjBZHZfbvgIzHenIHJOJEWMGZm1UZoamhb3ZD/+ACHIAAXUKvxFNt2nX23VYettkjBtDU/BnoujBKlQ9uQZ1m33wvVIjx+X0cnJt58C0hTXwx6KHXT4szc1GwbO+7q5bW1Y+Krx+tG6sRundbrhG28xXmih7M2qWyNBa0R/qJwWdEhyTGx0rG0TiJuTO6KsFLtQtXYRpjtC6RsUmz8hB8cs+1MuWYIKdqwzTJ6Snp4tYmJQJ4Z49e0TsFGF/DSpWavaAz5vTvedfYHMDGtQeuDY53psLrD7Adrb2YXrRpNmWqTe62trQtt0b8kdJk0rIIpPDmjfFCalgfzuCO71YkZ+NzGvmoOz5ZrHwOxpt8D5ZgMk5Ragz9nBqoUkYt7hRpow/hXDeWgnvtmoUT43oSdaADXmPlsOjNm42V2HNKyJ+iuB/YgVWqGOgM7+BvFjHB2OmC22bVqDARd3SVfBqnpnrxmxgZ71cxrzw7WV/p4x1iNUi7NXFGrnNeeKJJ3Quau69915xRurQuvPq3cVa6Hhq3A21y3/bGb52Rr5UvU8cEgS3rZbKF3ik4mX1UqvJLg5mpNTdUJ1H8931u0R0BoNScE9QatlYLVXXVCqfM3+GS3KNj75DB7lqU1xdRXPhpvu7bqniLZEvU3tX+D2Rgn28/DkmqsEpybJleh7Gy8/TcM/VsteyzC3JRbn7XNv0CqklxmdgpOkBV/d1HIsaRW5ipNLVVXBVXvfnwt0J7OMRqJTyul2vOaQfvJRKN1edUnBjpVQ4NY4dX+wuKX9Zk/zLModdrCUOu1iLjxUrVvQonwcOHBBHw8QkhNXV1boL3XnnneKM1DFQQtguV/bO7uvapLxVreJIcqS0ULzsiSwiCYa8VbKA9iaEvnJJtozFMZvkeVnky+iflz44b62QGvdE8DV5UP67vkapckGOTuCcBmFSyt7+56V8rW9N8gWrEeO40Qr7vGq5ik+cVFZIO2Sx7/5ccQthq1Q5W+Mz92srpZ0pKXed0o66cil/YiQBtEmOrHBDx8z3qDPCd2EhTBwWwvhYs2ZNj3L58ccfi6NhBlGhlA+aIn8xxYx8/fXX8e1vf1vkAjNnzsTq1atFKjU03JeJwv8SCdyBNcFHNev63sEv/v2L+PEbIimO3yx/vqFDY5saR+vKjBz5689QMPcn2HoglL7i/63B73+Si57zjOJHvrc4fvx4TJ/P7LPhyId4s6EWNS88i9+/9k8kNyp7Aa74/AUYfv6VuM5xAS65+hpckfVlTBsvf9Odv8CtU3+MreLMO9YG8egMkYhyTP+8wlxSUIUNP8nDBb1+7X/i2f93Pe7fKJLnyc/0r/IzF++jsvev/7odk8oaQxkyV9zzG7z+QBLTVbXfR37WQflZJwp9voSfrQYqJ++suhVfXBK6y1ffuwGbFk9U4rHwz/8qxPT7GkT5uALfe+E1lN6QRLkj9tThh7ffh5q/60vdOWOm4MtzczH35pm47iq5POn+xBG8U/1DfKekTn6yKlMQDP5GxE8O1Dqvt+c2UMRa7ohYyl4qSbrOEyT6uYzXpOu88sorkA03kRPi3XffxZlnnilSAvnkiKito82bN3erKYUvf/nL4oxU0SpVTNeqdt9bhJ3byiW3xtpIpsvNDLpvcbeOaFeMjZVS6WxXfBZghkNplbtnF0qeBeVSZU21VL2xRekybY9i9phZhO7HNRZxFGvR1CI06VaOhs4SQo5Urtn5o6vrPWnlNzTXNnTNJoT2+yTSBamhryxC97I49vHwyd9HU4adC+ql/SlplWuGC+Sy5aYNrN+KxX5ukkqzwp+HghlsESYOW4Tx4fV6deWRQmdnz7Ic02QZI7JpKWKpQjs1v+9p21AC94yybvdVtumlaKgp7pd1VxF5pQQTxozAhJuLsHS9LzQbLwo5DzQq3kCU3QfE/osh/4+l8MzND61BG22P3TOIShIu3BzzCpAfg/cTFWeWSzPFv9mw56EPO1VTlJiai9xkJ4AEAmgRUcfIk3yS/zHaKSXsgg2XF6L8wdwULV0g/7vVWL2sGjsCrWh8uhh5V8dSkNIwQrfuUW52MMwAktLlE8OHDxexEKkXwv6iA81LZsJ1S3hHevusCnhfLo/JfVWfco0DTqP6ZTggt8ZRvUUWvBcLRWaIEWdnKkKn7j7Q39hGGlepOZA3I86uRke0DX1lQdbMPHVNmZz0jheBXf7u5RcuxwQRG3gCe1R5jpUO1C0sworu5SxOeJZVIC+VZXioC4WL8uGMZ0H/7iY0aRsvs/JEhGEGhj5dR3hSCmFbA8rcTkx+sEFYWza47qhGU51sCVph8dNoDzyLQlW9fWIeStc2yRZfqDWeP0UWvCsc3Us6iMC+vvEw06m1CA33ResYPXOUQcIycjFZ3fggVmLeWcOGyddpv30iBNCwWV0p6sbkG2NdetH3dB0LLw2JBd/yOSh8KrwS0rmgAuUD7tKsAw2PV0FdyUgNI88dBSLOMAOD2TrCwYN7yl5MQmh0un1SCeGxNniXFyD7mplYulmYXBlya1cWmqa1+XDEYVH5npKvk5mJ7Nuq4OuDrlz3sha07+tEcFstyu/IgV0rRGMdOuspcCi+yjNWmrX7DhqEKmq3qcuRfNdyxOtnwxHZdIyNTVWo2iDisqWS+nV2KULnzacntD9hwWJv2LHA9ApUPx5Dlyj5Z920BisWCy8/18nBPQdLNeszk6FjfRlKntSI891WEGfmdMfMIqQJR0YSsgi7urpw5MgRkbIq8g+fdsq+zolpi2u693SzT/WgtrkFq+9wxucFY3MZCu6Rr9PWBt/zZX20IDsNtkiOj212ZGp3oWgL9jqO2J84dON9seKEI6IVmQnb50VUtuaCyRjA++tQtFD1JuOE566CBD5r/xBtG6WuN5cq+xN2y814D9ZEG9tWxK8KZXmTMS6Txp/no2S58PLzphw216F6c7zdsj3p2Fqm+1yKOK/MS9F4JcMkDs1iNWJmyCUkhIR1rUJVAB2YkFcW9ktpdyF/WRP83krkJbutkT0Xk5PtqYsb/S4U6OhCu4haAUese/5EwRsIWxTA9XBdJ6KyEPq2a4/FQVsDSmYXokqMpznvLkf5rP6vosnDj29TjeLhp6GHs/AYIFd/mgleiqAvKzcZF+zCB00vYMV3Z2omX0Xw9JPhRuE3k5vQ0vYb2kF/afhz9SbODNOPpFQIqU/1rLPOEqkQqRVC2TJIUpxoX7q65fMxzZEZEkC1sqEJJwto9lsLqhcl4RB4ajl2HAyG9m17pzqu2ZGpwXCP+mrvwENRtmKKQiIbwvbG1Jvmdj8v79MrUGdWmUfikB91S0Jd4iu2hr5Ryi0V2eIiZ+xKUN3YravCUsWNneiCdI1D+qBBGEFd6jcXoCC/ADOvKwi7Q5PvdtchEY3E9irM0c4QlctC/nP1qFQF/RCJrPx3b5uJa0aPxKXu21HyTAP8Znor/x5cU/NkEa2VfxONKO7eeixOjgVQt3AynN8M76Bvm1KM+i1yQ3OgJ54xjCBWIYxpHSGRmZmpW4uxbds2JT9VxOdZJlcqramWnv3VE1L5XXmS28ydWIZLyv1RtbTjoLhEP9MXa2qi36P4MVtHiKkV8t1WqZU8mmPaNW76NYAuqbRZHIgLw3OdXiGpqxiVste1SSoerzlud0uFy6qlJn/IrVznUUnq3BeKB/fskJperpZWLyuW8mf0dOfmvLVSaonVlYzwflNds1qqWOSRPAvypdwoHlTiDpcXS2E/Ovp7oPPsQ/gqpTztPaAg1o0qIZIrPfmcnNkeqWJto9TSy3rS+CCXaxVSfpbGmw1skmtu7PeX1xEmDq8jjI+DBw9qymko0Lp4IzEL4VVXXaW72B//+EclP1U0LnJort+bEEYO9ol5UunaJimYsh9+YvRFodD6ygTypMo94kCC9C6E+vseWQgTXexueK5TyiXVi6pa9tpf9kgurZu1eIPcIIrm95Lo3NciNa4qlwpnu1MjdBS0YqWGqXlS4QKPVF6ndeMXRQgNC+ajB3J5livNfXil9Ic/v6c0ElIKOXuoq+jpczQjR/LU7IjLXR0LYeKwEMZHR0eHvrzKoba2pwkRU9co0dczRyc4Et/M0z4+F7KlgKY9EWZcniLod6HooC3/Uo8tDT0nHIewjQwf6TioHaF0wDFeRJNha7B7OycV26xKeNdXQLZARE6M2F3I+1HvXeKBJ2ciU+xyv2a917Q70T7eBVnIkDsvtOGv55FKPPurZ1FdUw/ZOg11l6vODUKNy24nB7rgrcXqlZUonR2pG9kNxzUiKkM7n4S7Q43YIAsf8heUo1LZyb4drb56PF92D276/IUpWl/ahbatNVixcA6yabwxrwRrumdeq0MOTaicG+fEM4bpJ8y6Rj/66CMRCzOI1FDEe0AzQ8lvHC1AnDZtGrze8Oa5a9euxR133CFSKYA2Tf2hBxXP+9A1pRzeLaUIS2MHmp8qR7UvAP8uudq9OhNpo5yY6LoWX71pUny7ePcT9ADkFlIPZwTJ0LZhKco3iZHBLsB5TyU8iY7xyLS1tcEutxian5Qr01f8wNVyg0J+Bu7uJXZ+rHBPQMlbDuTMKEbVWk/3JAjfM0VY81YoDvlJFa4s1Dyv2PEunoBpy0MTYWxZHlRvrkSurFrasqdAMyA3VCli5ZVFxbdTr1i2sS44HA5kT5wM9y15yJvkiEkM/MunYWZNO2yZTky+PBMOVzYyaRzN5UC6zR6xbHV2dmLEiBEilQwd8D7hQdWWdEy+oxjFszQiSd95czUaNvkQ6MqEM0f+TCNDn81hN3emkNpy50fVLW4UKbvPE3Y4p05G3q0eFMxzx7fYXkOo3FlnHaeWHuXOYqSu3KWevqjzkmXfvn244IILRCrEY489hvvuu0+kQsQshLNnz8bvfvc7cQR44okn8IMf/ECkBgYuFMlhlQqpa3+bLAc22DVLR7hCSgwud8nB5S5xrFj2qKxlZmaKVIiSkhIsX75cpEIk3DXa0dEX/XLM6Uhahmx5RVo/yTAMkyAkzkYOHBDbDWmIWQjNFtUzDMMwjFUxE0KzMUIWQoZhGOaUJOVCOHKkfmSc+qoZhmEYxqr0uRCyRcgwDMNYmZSPERpdrLFFyDAMw1iZlFuERiFki5BhGIaxMrScwwjlGR3C8BghwzAMc0piZhESRquQLUKGYRjmlCSSEBrHCXmMkGEYhjklSblFyLNGGYZhmJOJPu8aZYuQYRiGsTI8RsgwDMOc1vR51yhbhAzDMIyViWSwJSyEaWn63QHYImQYhmGsTCSd2r9fv+N1zEJohC1ChmEYxsr0iRAaN6s8fPiwiDEMwzCMtegTITzjjDNELARbhQzDMIxV6RchZIuQYRiGsSpsETIMwzCnNZGEkPIPHTokUmwRMgzDMKcokYSQ0FqFLIQMwzDMKcmRI0dErCcpE0LuGmUYhmGsSp9YhMOHDxexEGwRMgzDMFaFu0YZhmGY05pYhXCQfKIk4r1y00034U9/+pNIAc888wzmzZsnUv3PiRMnMHhwXFrOaNi3bx9GjRolUkw8cNlLHC53icPlLj5uu+02vPjiiyKl57777sPDDz+sxAcdO3YsohDKxzB06FCRAqZNm4bXXntNpIAnn3wSd999t0j1P5999lkPK9VKGO+f1fjwww9xwQUXiJS1sPq9s3LZ43KXOFzuksNq92/OnDl46aWXRErPPffcg5UrVyrxQZKMEjOBZtzQl1Jdq33lK1/Bxo0blThRUVGB4uJikep/aLLOiBEjRMpa0PYfVCiM46pWoq2tDXa7XaSshbHsWQ2rlj0ud8nB5S5xrFj2ZsyYgT/84Q8ipSc/Px/V1dVKnCfLMAzDMKck0cYI29vbRSxJIYy2RoNhGIZhBpJoQtjR0SFiSQrh0aNHRYxhGIZhrEWfWITGQVoauGUYhmEYK9IvFiELIcMwDGNV+mWMkLtGGYZhGKsSTQhpjos64TOqEP73v07g+sZOvP3xcQQ+PYGtNz+Ayct+K46yRcgwDMNYl/PW7MRXHnsOX7jhi7j+139D1m/fE0dCqN2jUYXwWxcPxtcvHoLb/9yJ/ObDGCd14L2V94qjLIQMwzCMdRn3+i+x53O34LN7n8dnw89B+q8XiyMh1O7RXrtGvz1mGNKGyKJ3Arju8C580BYUR7hrlGEYhrEugf/5b5zzUQBHzkyH/b0/43BwtzgSIiYh/ODIINyxrQsTzxuCWRcNRfVZ1+P62d8RR9kiZBiGYawJjQ+e/cM1ODIiHZdvr8V7zq/giu8tFUdDfPLJJ8prVCF8evcxZNkGY0XWCDx8dRqypTZ0fSXsW5SFkGEYhrEi5I6ORHDkfxXjj0vuwYT/fQ6+C68TR0McPHhQeY0qhA9cNQQ/zxqOIYNC6Uu2vYC/zL8+lJDhrlGGYRjGipBF6Lt1LLb8vlYRxb889wSyqu8RR0PEJIS9wS7WGIZhGCtC4qclLS0NZ511lkiFYCFkGIvQtb8NbYdEgmGYlGBcQ0hCOHLkSJEKkRIh5DFChkkO/5Mz4RiViczrSuA9JjIZhkmaU8wi7ID/lRrUbGhGm1bgj3Xhg399AN8m+di6cFjz7BpNugHNO7m1zVgVPxrWN6CNoju98L6pZDIJ0vbmGixdWISlT3nh59/8aU88FmFcG/M+9NBDeOSRR5Q44XA40NraKlJ9hR8r3BNQslmOjs9HaT7gq2tG0/aALJGxYxvrwuQb5yDvu4UomGJHmsjvK/pqk8qutjZ0yJZD++4W+Pb0vAN2pxsTMtJgG23r9TvyBqmJk5oNUjVlW6bwRQmrbw3FE+W03Zh3bxXmjClCnUjaFtSjfWWuSMXO6VHu+garlb0//vGPmD59ukiFNumdOXMmioqKRE54c964LEL6klr6fYxwZw2WPliDhjhFkOjY7UPD82WYf2MmMh3TULTOj8he6CyCbPX6N1Vh6XfnYJprHNIHDcKITPnzj8nEhBtnoiC/oEeY5qLj6RgxSD4nt4BbxycRgd1+EWPiZrRc/he4EJJXG9xOpxI7OelCx942tO23fA1laYwWIQl0SrpG+1QId9ehLC8bmYPSMfPJgMiMjH28G1+/4/uoWFuN+i07ENwT7BF2bKlH9apyFM52w6lpgHbs9qIqfwIctyxF836RaTE6tq5AwXWymN1chLJn6uCNW/zblC7lsnumYcLZmci+bSkadolDjCXplBs+TKLYkLeyBcGD8m8/GETt3Q6RP8B0taF5QwOad/fybA/54X1qKQpyJ8h14Aiky43dzFEjMGjUOEz7bpVl6ykrE88YIahrNBKyokqy+ImUJP3whz+kbtTuMHLkSHEkBdR5uq/rXrZDZBI7pIqp4b+JLI9Uu6dTOXL48GHlNSaOdko76sql/Cxb+FpysNH19olzUgjdN7p/idD+skdyZWi+sybYx+dK+YsqpNU1jVLLnqAkC74m7JCaXq6WKh/Jl3LH23u+P8MleeraxV+RJLnCEDHrYSx7ViOushcRQ9m+u1bkJ04y5a6/OH3KXVCqnK0+X7meEbk6OndI1QvckiPC7707jA/VU6kod537glLLxmpp9bJiyTMvV3JNdEmyoaD7e7KhIeUtqJQa43hUVit7zz33nO473X777dIf/vAHXd6kSZOUc+MSwu9///u6iwwbNkwcSZ4dy9zd140qhFMr5JwQCRWKo0Gp8ZFcSTYQu69pm1ctheUhNSRcKI42SaWTNN9XCXbJvWC11CQaALES9FZIeeMN17q8WKo/Ko6zECYMC2HinD7lTvt8ewph8OVSya0VILtb8qySG7jB0O+8M9AoVcx1STZx3HFvfULlrjPQJNWvKpcKZ7t7CF6vIcMtVbwlLtQLVit7v/zlL3Xf5Xvf+570xhtv6PJcLpdyblJdo8b0ScFQO9wP1KNhmRtyAVPoeL4M5a+IxECzoRpVfxJxYnw+VvsDaFxZiJzR8U3xsU8tRu2WWnjGiwxilw/+nSLORKALbVsbULO59y56hkkE31Nz4L5lKbzKlGHAeWslWgKNqLzbDZc99DtPG+tGcU0tymcpSQQ2ePFqKBqdYwGlm3V+3jRMyByEEY7JmHlPGdas98Iv/p6C3QnX1DwULvDA80glqtdWoPiuPPnvi+PEfi8aXjk5x65lURaxENQ1eu6554pUCPWcpISQZledrLgWrUb5bFUKA1jzSoOIDyze5gbNWKAbFb+pRuH4JOa4ZuSh+J74Z88lTgeanyzCnNw5KPvNySkkDQsdyKTJSO4SVO0VmWaIcR2qcLKvy5aD/J4lNfDzUN+AQbOq22iiiW6tlbXoWF+EgnvqEJIXm9wwb0LTix64TH/mDrhvdIeiu7rwcSgWFd9jBZgWQfjcsz2oWNsI2eqEFNyBFm8tVq+sROUDHuTfUYyKp2vR8lYtCi8X75H/vuvqk3PikdkY4TnnnCNSIdR5LpYRwuC+/q40HfDMKwhbhW/7RcEcSALwbdfch+m5yLtaxJPAYc8UMZkMJ5zxXvOYbCFt96JmXRWWLizBimdpjWak2aheVC+sQt0rdVj6zflY8bbIjkRXB3yb1mDF4vmY45bFxJGOQYMGKYWWyhfFKaTfvAK+GDoguvY2Y82SAswUs2zV92c6p2HOwhWoe7u3CjIgW8xq7eFDwKRQdO2sw0/n5yDz7AndFY7vTZ8cZCvywQJMnl4Gb7zTmk9WDgnh0YSuFHYUdbX54F1Xg6olRShZHloj7I34DP2oyg/Nqs6cUY5mkWspjnlRfn9VqK7JcKHwuRY0PpLTXQ+lgkBQ/uYZsoBNdCF3nixuGuFrrKtE8R1hq9OUoV3oVMvvVA8KZ4j4SYZRCGnW6LBhw3DmmWeKHLl8qVaj0kEaAWN/OQ020lvUkMrJMrV3h6/bp2OEWtqrpXz1upcXS40iOxXQfYu/v7xe8mgGzR2LUvOJ6u91hK95b73I7X2sptNfK1XcFWUg3zD5JoT+eWn/XphOKbixUvLMdunGaqMHh1S8UbzdjKB+PCVasE8tlCq9kb67/vN76kQ2If+NSvl+xPKZnTE9O0PZvss6Y4Qta4slzyLDZImDNMlitVSxKF/KneiMch9skiMrVypcVivtMBnW7nWMsHOHVLusUHKP1U9s017ftaDWZFw/+phcLBjrvOTQfJ6sUqmJsjYWy78nh5Qzu1Sq9sc25t+4SPx+5WtsTsnYdBSOtkrV85yhv0fjgz6RHwOpKnuporS0VJSFUPjpT3+qlL3MzMzuvPPPP185Ny4h/M53vqO7sM1mE0eSZ0CEUP6peNTrJvjDiURCheJorVTY/Xkg5T+Xgik8vgrJrQpZRp5UGRD5MhErpDhEBRn5UrXuY7bLPyTNcUMDgybw5E80mdHaa7BJnpfFRQy0vuiRckzEWpn5dle5VFkTmiGXP0NbecuV6R3VUquYOBRGWybUiQKd0o4a878Bu1Nyzy6UPI9UStXy36lckBO6bz3uixmGsj2lVGrc0yI1yteha2lDk+a5RSM1lVH4c9nmlUvVyzxS3iRHbOXBGOy5PSrTiOWOJrIty484Y1ofbFJ+TbRGmBWEUFOWNPVWfDRJpVniGnJDKTWTtCIg/+7LZ6m/TadJIzc6VhPCxYsXi+8SCitXrlTKntMphF4OZ511lnJuXEL47W9/W3fhjIwMcSR5BkQI91RKeep11RZbikioULwli5b6eZAjlcfRGjOjc5v8/bpnjfYs2GYVUo+ZbGqQK3zX1Dyp8K48yW2wBvJW6a9Tv0DbkpfF5B05s7NFqjQTV7l17JYr28qXm6Qde9plyQnR1dEm7X17q1wJC8sggrC0PK6fAQy7S8r7UeQZtp17tD922XK722hZ6IWw3Cs3Cm4N/3CUIN+Lr9zxmFS9Jdj9ebtpLpVc4rzCF0VeQ7EyRd0s9DptXgSdZRqFVAthxCA/N9fEXCl/gUfyqIGm4ptZcZcX6pYomQphsF4qnWrWQLJLzonUoCmU8qYapvnPrpT0V9J+blHu4sRyQiiXHYe4Bv3O+kYIQw297t99Ro5U3BCfCBJWE8J7771XlIVQWL16tVL2aMmEmjd06FDl3LiE8N///d91F7bb7eJI8gyEELY/lx++boqXUCQvhLFYFBGgrqVHNC1r6sJ80UT0DBVSy6o8ydn99ynIVtOsUqnaFxaobrSWpuHeaZfCKF2aK7WCLILdLRWubJTETPEe6MqebCm0mghbe51H83ntUu4jka+n42iLVN5dpgyWhba7XL6mXVPx2rJypdK1LVJQtiIjlj2NVe96QDStNGtkEwuaKezvyJXrDFlEZxRKlVt6FpDUVEaRhNAuueRGS61ZeeiG1uuWSrmGxlTOIy3iuIkQ+nqWD+Ve17RI7cY/JD+7iumq2Bp/IwYhjHHavxZjnZccyQoh9a6o3zVX6c1JtRB2+qul0hmaht74PKlyWyw/op6kpuyljgULFoS/lxyqq6uVsnfTTTfp8j/77LP4hHD27Nm6C4wePVocSZZWuXCHr9s/Qqi9rlk3S3IkVCho/ED9npBb0T267aJwtFNq3VLdY0zPllUorY4wFqGtkFpk8dJZa/Zc2RrqKZ5aau8S5xqsaV0Do0ewSTkLqk3HjrT0WiEF5Mqz+3vG243TLq2+NfyZtJW0vjEigtyQyF8mi6zmeUQue5pxXnXMz1cu5RivaRqo8q+UyrVWlhLKpfo9dCH97wTTK+QcPampjAx/h4JcQVaYCG9EgtVS4eWa92t+tzoh1DaolCAaNNHK/ouF4lyXVNos8hROMSFsLu0uN+pa55QJYbBFWr3AMN59tVxX+ILy8zk1hJDWDXZ/NzmsX7/eVAg//vjj+IRw1qxZugtceuml4kiy6MWuP4SwVbZ+uiv+8cVSYzyiEwMJFQqd5eCQCl+MUPHIohf2IkNdRj0nLtjGuiVPzQ6pM8r3UiskvWUlv3e6LGwxeNsJW/EG0X7ZE2E8ySnlP2esus2JXiFpW8pymERja/IP+KA4bMZB+bg/tLA439AFpytvRiHMcEvlJi3kyGVPU17Vsqo8L9X7jz40PpAT/lsxjGvRBKbyeW6lW7JQtk6NpKoy0vbQxDtpQkXXM2D3yE2EEN1CuE8WCq0lKP+d0ljEVvM76e5+VtDXFbF2J2uJXu7iRSOEPbpxe0P+Lt2Wr0MqbgjlJi2EB3dI1T/KjWEc1i45qdehl8awllSVvVRRWKg2mEKBvMqYCWFbW1t8QjhjxgzdBS677DJxJFn6WQh1rdD4B4VjIaFC0aMLjcZHNGNKWb1NWLBLrtkeqaIuugCqKBWSoUVun1UhtcTUKNC6jzK0vs2sKtkSdC/rWXFHImqFtC1WCyuWEK5kFHSf3RZxwlJMQjilXOr1G+ueefITtlJVGWmFMHdlbI2XHmi/m9Ei1HVxysFkUk0kgnIjVn1ftLpiwIVQOwchTq9BOx7X9NDMquy2/BOu83oRQNvYUB3T0/NM7L/bVJW9VHHbbbfpvsvrr79uKoSBQCA5zzIn5YL6/XUomlsCr3Bi67y7XLOwfmDpuftAG/zK+jQRTBxvk/PxvAUVWL2xBe2dQbTQOqHZTqTF9GjewYrF5d33wja9Ag11xXDF8t7dtWhYL+JGRmeKXQDC2OZVoXaRS6SSo/nl2pStEXPeXYGyiOukspHtSqJsbA3i5PdNk4fc2Qk6sNY4EXdMdEG7LNv/ZAnKN4nSnOFGxSv1KM4KJaMTQO0r6mZLFqejK+5dchS2r0DRo17xXieKF3iQuAvxAOoWTlPWvBY81gCf+lsf60b+I5Vo9AUhN5rRHmhBy7YW7AhKCHpLITeOBR3wLqtATUJfZGAx6lWk7atovWFcQkj7TWk56YRwfwNKZheiSrgYk60fVK/MS+li1mQwXYgsFsZScMuf3bOgHJU11UoBbu+UC62/EbUri1E43QVbnA5oPln/M01llIfyp2MUQRnf89UI++JpQUBb49tsSO/+IREOFM7LT9F9bkb9Bp+I66E9J0P3yKMP83K772EoyI2Hu+T7uHEHWlal+vmnI80qBSolZCJztIjGRQfqNntF3IG8qbKdrfJJHcq7K3ob8h5ZHaMIyrxZg+oNIi7TsidyU8O/+yRshhzz6RqnTrmRWxbeUi8B5Ht/Zy4m0O9Rrkvcd1Wg9q1OWfgaUf2AB+4se49Gs31qOTyzRYLY34ZgNA9LFuXo0aMiFkK7kF6LsvBeWJGmGLsJJk+erDMpP//5z4sjydIPXaPvVEv5mvGI2LsAEyORbgL9bMvUrmvsSYt037Xq37JJeavi6P7aJ99LQxeLvhvK8MzinfgjE7GLStvdpAaayLHRZClDIui6RiNPuIhW9ronEcXyDC3fNZrgZ/KVd99H2+xw1x6xafFEce2ex6JjGBumoOtyjFaPxEbEcpcI2rIUU9dou3zftTM45XtvGKtPtGu0dUujtCPaGLoB/Rix/Dli+P2mquylim984xvh7yCH1tZW067RrVu3xtc1euiQ3qeWVXdxNhL4TREm5xSgRliCznnVaIq1C/BU5c0G/PEvIj7Jg5K7Yu18kVv695ehJur+aE44un0VErKpmqp77Q9AZw+O9yiOxYunyy1bkTWw+BE43fd9bKPhhzIo9mCGG2UParv2fGhsfFPEc+BZHHu3X8dvSlD2/EnYRxcj9P1KnlKHR5zwPFqOPF3PSuI4prjhHCkSvXGsAU2bRFzGcasb7pOwrpSFWcRCqF2jxp7NEydOxNc12r2JocDyXaNdPlTlZyP7m+rGlnbkPtKEpufy4TidRVAmsMULtTpy5xUgJ8b74Vs+B4XP9N7llNZX/YOHunTjbrn3FKessjjZ6NpvPefSXW9WYc7UOWL4wQb34gp9t+cuL7aqDTD5vIJJIt4b21dgzj1r4hpzHfCNjgMBtIio29GL42rD93MuqkRlrHMXyBdwCh2N+5avwAq1MSc3ZDz3WGf4KB4idY0a88n/aFIWoWWFUC4Y/nVFmObIRtE6X2gswp6Lcq8P9Q+k1sHtyYrvnfD4jSurlx+pQPGav1iM7dAEh8c9Ee+lY0y2iPUtNlu6iCUGOelu2OSHteSkdwLPFyB7VCYyM+UyvsECVtKxNniXF2DyjCLUCRHMWVTdc4LUWwFsFVHjBJqI6Ca4yeL6eAU8MTR+mqOMH/YLskES05PZVYMCzQQ+mrRW/ahmTLUHtE1YDVYsnINpzkwMGjYi5Gg8MxNzntFuNxE/ym/8frVuEOO3KXD8PxAYBU+1CD/77DPlVUURQhoojBTIZKQ3qWmjEA4ePFh3fuKhC0dPiIvKnDjaFfGYfBBd4hgRPo9CO3z//TC+fa0dE/KrxF5f5+L6u59Fy47f4oeTzjWc33eB7hvdP7NjkUKX7osew2cm56QqfNbda3ABRp5jfk44tONPj38DOXnCaz7G4z8qq3HPF0dDbez//R2/7j1jL7pEHCH24p+7tNfrPRjLXne4YjRuElclatb8Aj7jOb2GduxufAr3zcyCfcxkzLz5HvzsbXHsyFGEn8IJHD2ifV84EGb5+vIawzMMPwiZWJ+5D/+9pkY8Cz/+7g92H0uk3JmFi+zXK1fv9TMdlH9z/3UfvnrteExbXCNmJZ6Lm360HnU/norhxvM13/eCkWfqj5mE9jd+hm9MUS1MueTd9RSqv+fG6H8LpfGPf8Dffb6hrjhmUn56CRHLXSJB8131dZom7H0B3/taeNgGV/0Hnlp7D8Yf7Xlu+19ewM+L5yLLLgvfjQUoebIO3u6dUggJxyP9nRhC20s/wFfvUn/jcr1577Oout1ueq5ZSFXZS1VQt1hSoa5SCsZ8+swxT5ahV/k9uvDVr35VOZY8SU6W6QxKTWtLpdws/UC6fapHqn4rJVMo4obuV9ehjtDCaVrIXRNy/OzR+uq0u6Ryr3iDTH9Olol5ndjBJoOPULuU+7i6rii8YLjHxISNWi85vewcYULkSQstUrluB3+b5H6gSfG60Ru0U/fqR/J77Gqg8zea9GQZbXmN4RkmOFmmfdvqkAeaRat1k76UcpeCCQvhshjhMx2MsENEhksqjOY0Qft9NevjenC0U2paqXfArZ3g1l1+NfVBj7oizrV7RK+TZcgxg/yb3rGlXqquoZ04PMrO767xIScN9onlYSfzmu9qOnFnX5NUql1L2cNxQafU7muUKk3KrDGQA43ClbH9DnrSLjUt07pXtEk5i+rjvlaqyl6q0PoUpUDQZJnx48fr8v1+f+wL6js6OnRvppCfn68cS544hbCzXS6MLVLDLx4z3cpH2WYnVbMINXTuox+BujtA6EcQcoEVcgjsEgvfey5KjRT0AtGfQqj7Wxk5PbzQKKJhXIDbo5KTRWlK6FiPH7phUb378djnBhLRKqT2l/WecChQo6dyY4vGu4xcicgVlrJt0II8Kce0IjHZzkfna/T0nTVqJoRUJqLtRGGfWirV9+aIRC4XU7rfI9ztaWczHmw1adT23Cmk5VHhkScpIQyVkaAsNsouH2srpB/c8z3pnqJ7RINV/U1H23LKELS7rUQTQqMIysE+q1RarRFXs3rk3Euv795RRfnMVOYTdIlGkK9Rj87TklPKW9mSUN1pNSG89tprNd8rLITkCEabv2vXrtiFcO/evbo3U/B4PMqx5NFv3RNVCCMF2sXgrgqpNlUWIP0gXya/j7T3Wuy7BMQUFM/98g/sVv0Sjv4UQqVCOk/zmbo/l/mPXrGue/gsDfuktC0w7Dto2FKqx/FeiCaERA/fqPEGu1vyvGgmzhq3WIkKYTxLD3SWs/z3EtgxQUvqhTBHyo1QKavBlpUvlZM3I/He6OyQHvrSOYZr0P6FERqQ9JyokSberdL6uPh8GWHXbT3qCp1IhoScXOwpu2RkJbitVISgembJ6+4t0XxGOeg8FJFrOUPvVcRAv8kZ8v1d1Si1yIKX6PIJI7QLi3FvTXqOcfmTNWA1Ifzc5z6nu5cECeGYMWN0+e+9917sQrhz507dmymUlZUpx1JB9+aTcohdCC+UnFRI1jbFtutATASl1fN6+5GEfrhU8HPnCatQ7EdHoX7LDmnv7r3Se+++J1uQ0Tz16+lXIZT5v5ceir43oPwjpA1EV5ttNyTorvR7+FJslIq1Tpfj3N2jNyEkaB9C0y2jogTFB6vYQcIczf5vCQph0wMu8f4YnqFuXWTkvxcrqRfCSEH+DUwvDLnzE++JleDfN0gV86Jtyixfe1KeVBrtd91tbeVJlYpDcsJQV6hlcs9qKb+XrkW1cZp17VeluWQRyr/p8lXC6qqpl5r8oS5RJeyL7Rtr76F2na1WIHsGu+Sk7c7k+qR+S2sPV4nJCGHnvhapkXztTjfUb/aeTuUTwWpCaOwCJUgIadckbf77778fuxBu27ZN92YKjz/+uHIsJdD2MoqJbpPyntZWqe1S06riUD+8si+ZRypetloRm+CB1LSO9NCPKeTjUxG5RRXSaiFu9CPosS1MBBIpFLrKx9Ca7QuoUBCdwZADb1XIq2vk1qf8XWPxV7pjZZ5SgbjI8bXIU9HujB/v94lFCBWOBqWWmgrJE8lqoQpOVCyNMfYWNK1Su7zVXR96Eq1CCu++EUtjplWqnK1W0hYXQmUTYo9UUdMktcaxONuIWu5ovC001hYue420+0Es135LbkBQuZuYI5VqhhdaX5Qr+hn02y2XalXrmrrpaT9NsX8i1R9hcdM3VGMudzHQvrFcypuRJ3louzHtb0mU2WKljBVLFWvl727YjzMSiQthu1S/QD/Wn2ojIlVlL1UYu0AJKnu0K702f9++fdIgOignTKHZNbREghbOv/rqq5g6dao4EuLZZ5/F7bffLlL9D80MiuQ/bqChRZtywcDw4cNFjvVoa2uD3DoSqT5gv09ZmpDmdGPC5XbYY13QK6Mte3HR1YG2/aHFEGkZ9rjdzsVKr2WPPkeH3KzLsPXu93V/M6qWVcN/9mR4FuTDKddWiZKqcudfPg0TFoem0ReuDaJ8lg32jNTczD4vd0mQcLnrJ7jOi51LL70U//znP0VKUUKl7F155ZW6NfEff/xx7OsIjUsniPT05NZwMac4GS7kzs1X/BnGI4JJkSZX2KPlvyeHvhLBmKDPYY9BBImMHHiWVaLygeREsK9Is8n3M0UiyDD9hXEdoUpSC+pZCBnm9CF9pAUVmWHioN+E8LzzzhMxhmFOJez2TBFjmJMTWuBv5PDhwzpfo2eccYbSFc4WIcMwUQm2Jee2i2EGAjOLcN++fSIW4oILLlBeWQgZholKx6F2EWOYk4c+EcL9+/X77qSlpUXc6JBhGIZhBhLjdkuUNupY3EL44YcfilgItgYZhmEYq0Ljf1pozJCFkGEYhjltMAohdZUm3TXKQsgwDMOcLMRiEV544YXKa8JCeNFFF4kYwzAMw1gLMyFMuUU4ZswYEWMY5pTjCgfUPdID+4IixjAnDynvGqU3G12SshAyzOlB4FCHiDHMyUPKJ8sYrUGChZBhThOOiVeGOYlIedcoCyHDnGZc9h089eabeJPCohtwRGQzzMmCmRDSThNaWAgZhonMiAtx5bXX4loKV1wI624mxjDmmAmhlrFjx3afk5AQkpPSzEx2ysswDMNYE6MQ0l6TWiZMmCBiCQrh6NGjRYxhGIZhrIdRCC+55BIRC/Fv//ZvIpagEHK3KMMwDGNljDvlG3UsaYuQhZBhGIaxMkYhvP7660UsRNwWYTCoX1DLQsgwDMNYGaMQGonbIty1a5eIhWAhZBiGYaxMNCGkGaNnnXWWSMUghO3t7fjoo49EKgQLIcMwDGNlogmh1hokehXC1tZWEQtzxRVXiBjDMAzDWI9oQqgdHyR6FUJjtyhNSXU6nSLFMAzDMNbDuHxCS9wWoVEIr776ahFjGIZhGGsSzSLMysoSsRBxd42yEDIMwzBWZ+TIkSKm55xzzolfCI0W4TXXXCNiDMMwDGNN7Ha7iOm58cYbRSxMr0L47rvvilgIFkKGYRjG6kQSwi9+8YsiFmaQZNxxV8OBAwdw/vnni1SIf/3rX7joootEamDp7OzEiBEjRMpaHD9+HMeOHet1UedA0tbWFrGwDDTkIJecuw8ZMkTkDBwnTpxQnqcaKP3pp59i2LBhPfK16d7yEw1Urszy1UB/LxX3ja5Ff0sb4smjMGjQICUMHjy4O067AKSlpenytMEsP9a8SPmxnkv3jsqdMV+bpntLz57Oo9do8WjHYjnP+By5zosdn8+H7OxskQrT3NyMSZMmiVSIqEK4bds2fOELXxAp4NJLL8Xu3btFauDhQpEcsQohVQ5Hjx5NOtD9iCWPAgmheg/VvEjv1wqNWTzZvCg/EYbpU0iA4xXP3o5FO48aKFRnUYglrk3TdShQ2gpQ/WbcJYm+o3E7JiKqEL7wwguYO3euSAFf+9rXsGHDBpEaeOIVQqrUqOJUKztjSPSYWaBKmm44FWRKayvZWIJZpZzMMW1cFZHDhw8r90VNRwr0HoZhmFggMTSKpJmQJpPX23H1lSx4LdQt+tprr4lUmKhCWPi7v+Kd/Qdx7Fc/Quenh3DeXT/BIZyB//W4xRmMlciu8ePC9/+G1mcexGjH5fg0vxzHtjXgzSdLxRmM1bjm5X1w/O13eHvtYxjvug4f/vvDOLr+Z/jri78UZzBW4pqXPsTlr1bhf19cjetmfQutXynB32ZbY6iI6YnrN7sx+qUl2P7aRlx72w/QekMh/jrjXHE0zCDZ0okohN+edzv+OfM/MbyzHcOOduLjjMtx/Od3YvsbPRWVGXim3PJNHLz9cVz43v/ik/MdGHL8KHbd/w18EHxfnMEkAln1NFajBkqrXVbGfG1azTPLV8PVX/13bLn625h44K/4xzmXYdSRdox4uULpTTA7n4Lx72qD+vfULi81X41HejXLSwXUzqZAPRJqnNw2nnvuubo8NZjlRcpPdR4F6vkhK0Kbpz0XWdPx8hkT8DXpXfxh8Dh86VgAI1t+ryzepntOr8Z4V1eX0vtCPVgUjGkKxrTZOdQ7w8THtCd+hwOjszD63dcQmDATP0wP4racng5hBsk3PKIQlpeXo+kv2/HRd3+JY0OG49J1JWhY9ytxlLEaVAHOvOsHePeWBzHi0D6c8eSdaN66RRxNHKoU1a4H+oHTK/3A1Ty1slArX3o1C3TMeFybjhRX08Y8NZ8+nyo26mQGbZ76Gi1PDWbnGbtXCPq+dCwVvPnxINz1lyO4Ln0wns4eRuohjpya7Nu3D6NGjRIp60BDADQ2TYEaImpcm0dlvekMB6o/OR/Th3+EnA//pAi78TyztDGfyq8qmlTWSOxU8aNXrRBSnIUwfsgdqH3xWuy/+POY4HsBD82ahCuvvFIcDRO1a/Sll15CddfFaB18HoYcO4Lhn36EQ7/4AXx/+Ys4g0k1N910E7xer1LRqmN6FGJJDzojDWXvjYTcnsXuriH4xnldmD74X8oPUD2P1tDQuRRoey2qkNS0NmjFhn6k/Q1VFKrIWRGqnFIxUeuToxJu/9/DyEwbjG0HjuM+53DkjZbFMEHoGZNVQw2UZKBrUMVLZUd91ca1edrxcyo7vcVJOGixc7RztHEK9Pe0Qf18qQz0N3sj754S7Jr+Q6R/+A8csE/AFa+tQt3jD4ujjNX4RukKvDPpdow5+B4Onjsaz048A1dcYNI1Gk0In2vtRPWeE/j1F9KAo534j+0ncM2ZRzELARw6dEgJBw8e7I6bpc3yKE0VHZNacp7ZKovhCBx8Yj7Ov2wCDnxnGUas/yn+/NxKcUYIEhfV2lHFJlqI5ZxUByKSNWYFqCKm+5Isr33he7BLh5DT+gpOXHgZnhuZgzkfbMKRwNs6IYgUtCKkpinQz1qbT8EoYGrcLC8WUTgd+dzvgsh8qx7/t6Yczm/ejb033IG3vn6BOHr6Qr9TmqBCjUN61cbpVe1FUoNqDccb4n3ftP8diqrs4ZiUMQxLd3Shse0ovO6zxacOE1UI+7JVTj84ozjGk6YWOa3loh8t9adTml7VwDAMcypCDUQSBKqbKajxWPLMRMqYFyke7TgJndoQS7Y3oi+JtGRswIQwFUTrntIKo1Eko6WTPUbCzDDMyQcJDFXi/RViES5jHgmNdkNZK8FCOECQ+EQSwoGCupRIDOmz0QA3QWm6l/RqhTjD9Ab95qlriSphtZspUlytIyiQmBjjxjwqgzRGGOm4MU6v9PdSGVSBMebRb4TrvMRgIRwguFAkBn02Cu+//z4yMjK6070F+j5m+X0RqOxRBXiyjBHS51R/K2qIlu7t3ES/tzrJhCp2I2qFbyZmxjh9hr4iVo9GAwHXeYlD5e7kFELg/wN6Fe5FpTRWiAAAAABJRU5ErkJggg==;" vertex="1" parent="WIyWlLk6GJQsqaUBKTNV-1">
          <mxGeometry x="106.42999999999999" y="340" width="107.14" height="70" as="geometry" />
        </mxCell>
        <mxCell id="JqYsh3KlYaYfrgVsSfgZ-77" value="Base Local" style="ellipse;shape=cloud;whiteSpace=wrap;html=1;sketch=1;hachureGap=4;jiggle=2;curveFitting=1;fontFamily=Architects Daughter;fontSource=https%3A%2F%2Ffonts.googleapis.com%2Fcss%3Ffamily%3DArchitects%2BDaughter;" vertex="1" parent="WIyWlLk6GJQsqaUBKTNV-1">
          <mxGeometry x="540" y="380" width="100" height="60" as="geometry" />
        </mxCell>
        <mxCell id="JqYsh3KlYaYfrgVsSfgZ-82" value="" style="shape=image;verticalLabelPosition=bottom;labelBackgroundColor=default;verticalAlign=top;aspect=fixed;imageAspect=0;image=data:image/png,iVBORw0KGgoAAAANSUhEUgAAAa8AAAD9CAYAAAALWvhJAAAAAXNSR0IArs4c6QAAAARnQU1BAACxjwv8YQUAAAAJcEhZcwAADsMAAA7DAcdvqGQAAGTlSURBVHhe7b0PfBTVuf//CYgGBUwUNFFRQvUri9KyqVSTam2WYktytSX5qpfkoleD/tRE6i2R2yvRKg22P0xqf5iIlxKt2oRaboKVEqpcgpaWaNEsFUtoURdFzSpoVkVZ5U9+zzN7Jjs7mf2b3eyGPG9ehzlndjI7O3+ez3nOec6ZtF4CceTw4cPa8rjjjtOWySAVjoFxu93IyspSpcFHroUPuR98yLXwIfeDj6F+LUaopSAIgiAMGUS8BEEQhCGHNBsmEGkWkGPgx+vIkSPaMbz33nsYP368lud1+vpQeeO6Q4cO4YsvvtCS1+sNWIZbx+ngwYPaUt8v74+XoZJ5m6NHj6pfFh0jRozAyJEjtWWi86NGjQqZeDtennDCCf0+s0rHH398v3Xp6ek48cQTcdJJJ/UlLvNnkSL2YWDHIOKVQOTmTL1jYOPLRlxPbNyNZWP6/PPPw64Ltw2LhTB8YKEziplVXi+z6T399NMtPz/55JNxyimnaInziWCo2wcRrwQylMSLjbpey7Zahvos1JKNN+fD7T/YMpJtgi2NefY2BGEowt4ki1hmZmafoOl589K8jr3LYPCzwYh4KYb6CYkn0YoXewHhEtfmrdYbk76NvmQBMX5u/ExP+jkTBOHYgb04o6BlZ2fjjDPO0Jbs9fFy4sSJ2nLs2LHqrwYPES8T8TgGrq1/+umnAemzzz4LMPjGZCUqHo9H21ewz80pzpdCEAQhYli8jOIWbBlPkRPxUhw4cEATmY8//lhbct+Dvo7TJ5980pc3Jqv1LDZCcuCmDu4Q15O5rKfRo0f3y1ut4050znMtNJmVqo8++kir/SYSfpy5iZaTOc8VMs6npaWF3C7eeU56M67ejMx2Ql/H6csvvxxQmb9DGByMInfOOedg0qRJfUv24jiFaq40ojfncxBNtCRVvPgG1MXCKDLGvFVZT2bR0b9biA98Ddnoc2eynoxlq8846eKhCwffyCwcxvWcrESJ17FxjSfJrFAZkQCexB0DG8FIBY9bOVhEOXEl1ZysgnAiWS/9qn5YwIzCxuWzzjqrT9y4GXOgJES8lixZol1QXVSCiQ+vF6KDjbsuEsESiwAv9W1ZOHhpFhqrvLHMkVMD5Vg2mNEi4nVsHwOLo5WoBVv3wQcfaMfA3RFsCyNZ6sc+1GHP7eyzz+4Ts1mzZmH27Nnq08iIu3h9+9vfxgsvvKBKwwP2LsyGnxPfmBkZGf3EgVOodbwMlqLxSsRY+UiFY2BEvOQYBgp7jZGIXLRLFt5ks3nzZk0/IiWtu7s7buLFbjO7hoMJexd685OeN67jxB6E/rm5zHl9ez1vXlrl+e9ZtDjPS64D6H0JjDGfLPR+AA61TRbGY9CF1+oc6XnzNozVdqHyjLHMS056uzrn9c+t9sFLxvy5TrC/iWRdMknV+0FHPy5er39m3o7zVttZ5YOtM5YFH9yEqreImbtjjGU9z/235sRCOBDCiZcutIz2fNF/cXui2CXmJiqdgoICzbjrSTf2ejKKAouB0esweyDBylZITduH1HJ9yP3gIxXOg2Z0RDSOafg+MwoeR11biR2np556Sv0V0NnZCbvdrkrhiat49fT0BERT3Xzzzfjv//5vVRo8xFj5EOHwIfeDD/1RF/EQUgHu89q7d6+WZ2dE96oiJa7tB+x6GnG5XConCEKiw+TDIU1lQqrw8ssv9wkXE43HpZNQ8XrzzTdVThCSB/d1xTKOJN5wE7kgCMC6detUzkfKiZd4XgJ3rusd7MlCPA5BSC3+8Ic/qJyPlBMvjiyKth1TiB+pIBypcAyCIKQOu3bt0oIzjKSceDHD2fsyRl4mAxEOQRBSjeeee07l/Ih4KVKlmSgZszQLgiCkMuvXr1c5H7FOFRVX8bIapZ0M8UqVDnpBEATBz9tvv93P80oJ8bLyvPbs2aNygiAIwnDGqskwZcVLIg4FQRAEZkiJ17vvvqtygiAIwnBl//79ePbZZ1XJT8qK1/vvv69ygiAIwnDl+eef1+Y8NJOy4sXvrBEEQRCGN3/9619VLjASO1bxSovnxLwNDQ2orKxUJT/8Wv5x48apUmj4fTUPNbaq0uDxo1uulQhFQRCEBMFvGWHvi7n66quxZs0aLf+f//mf+PnPf67loyHhnhcj3pcgCMLwhWdaMnpePIu8Dr+NJBZEvARBEISEsnXrVu19jzrxEK+4Nhvee++9uO+++1TJz9q1a/GDH/xAlUJjbDaccOrJ+PpX/4+WTwR/3LxN5aTZUBAEIVHU1NTg7rvv1vL8Xr077rgDtbW1Wvk73/kONm7cqOWjIa6eVzAGEnF49pmnJSSNP+Vk9Q2CIAhCIjE2GV522WUYM2aMKkF723IsDIp4SbOhIAjC8MUsXsYAvgMHDqhcdIh4CYIgCAljx44dAa1vixYtChAv8bwEQRCElKOjo0PlfPCrosTzEgRBEFIajjTUufjii7Wlsc8rpcXL6lUpwTAHPx492qu9kZnX8zKeZUEQBCGxGMXrW9/6lrY0zqrB+sATWURLyonXUYOosMAcOXKY0hEcPnxEW8azbETETBAEIb7wZLy7d+9WJV+wBjNx4kRtqbN3716Vi5zU87zIM9JhPTly5KhKLDx6ntJRUzmGz42IeAmCIMSXV155ReV86J7XmWeeiREj/PLDL6mMltTzvI4eVTmGPS/ykjTh8XtPWpnyhw8rLyqGz4+SgAmCIAiJwyhKp59+Ok4+2T++9uyzz1a5Y8Xz6tdsyEJzBE8++SRmz/4uvve972I2pe9973tU/p6pHP7z9957T9sfe19GxPMSBEGIL0ZROuecc1TOh7Hp8JgQL6PnxXrCXpLmMR09oo0X8KdXYyrr+zt85LD6Fh+iXRHibkfDoqVofV2VhWMYD9oeqETdRo8qC0J0GEXJ6GkxxvIx0WwY6AH1as17WnSgoS9sIPRqEYe8P3OzoahXeNpRXTATlQ9Uo2TZ4L+2Rhhcuh4sQdmiBlQ91ASXWuejC3VXZCItLRtFDzrVOkHoj1GUhp/npfqueH1l5e0DTocPH9X2x0sj4nlFggeeXSrb1QUxWwnksBONNxchd0YRqjfEz/Pxut1wu72q5MOzrhK5E9JIjDKRe3Mz3Gp9OiXtm9dtRYfxEDxOdGremBttP6pBwzu+1YJgJpTnxX1gOhyVGC1phw4dipvZXrJkCX7605+qkh+e/t4Yx8+zt6elpalSIPv27cevf/ecls8YdyK+eZFNy5vhvw514OE+/+KLQ/jfv7yqSsDt5cVIT+fHVQhOKyrTStCg5SvQ0luPYi0vxJ2NVZh8RZ3P47m1Bb0PR3imvR6493Sh09kJZ0cXdr6+FV3dHri2u3xCFEApmnqa4FhbBvuNSrRm1eLN5xYih/MkaplXNdDf5WDhc2+idhavJF6rw8xpVeSHMw7U7tiEhRdqBUEIgG2q/qqsp59+Gt///ve1PPOb3/wG8+bN0/JZWVno7u7W8kY45iFYPEIKel7+A+Vj5qhBq6T1g4VI4T7nk2Jk+AZseNG1tg6VxUUo+1WXWhcJ3eiWGnfiOOD1N9VtbEeb0Vk67IX7HTe6/tyG5sfqULVgPkocuZiaTd7T6Exk2/JRVFqJ6oca0LzBCaelcDEkbuRJZ93QBBcJUFNzEzY9rISLseUgV8u44Hpd98fMZCH7LJUVBAM8s5LxHY/mZsPx48erXHDPK5RdHsHvVolXMsbtG+FmOuN2wbwuprfX0GxI/44c5TFZiUlGhm+zYRsaiqvQsJYMoTMa8fJwJV9IFGPS/SLyegOKRnOznkqjRiN7YjamXkYVjhurUPdQI1o3O9EVTF9IYGwX2WE3pMJ5FSidY0OOmqUn/UIHSueWwnGur6xxbg70do9uj6FWTDVkfx9YJtIzVFYQDJj7sczNhkbxYo3wePobFKNumNOgeF7RYPS8WFGOaP1ThxOwDPS8WCqHJR4vYnuPqZBQcrL94mWJT5BYhCpur0E9eU1NzZvQuZc8Yk77Dmq1Vl/qxs5tneg0pPVP1KOptQnlETb3dew1hGwYvUJBCIIxWGPs2LE45ZRTVMmHUbyYaPu9Uk+8DC4QZ3k8FkccsqdkuYzxc2NgCGP42uHFO919HfRCCnEueUhGL4jIuqgYix9mgerBQSVILEL1yxejgrym0rkO2M/KQhan8fHov81Aun4MbsN9kp0Bu8oKQjBCBWswZvH68MMPVS4yUk68jCHs3GyojcvqG5tlsYz1c0pGhm+fVxI54Nb6brRkioATcpGbp7LM1avQta0FNbeyQJGoqNVxY08Hmlc3U2qHq28IZDay9Whmo4c+JhP+aVUFwZpQYfIMzyxvDJI7pjwvbsnTvCQSGvaUtGXcyiJWA+MgvIHjvCPD24XWB+ajyJaNtLFsHFXKHo3MnHyU3NWIjneCC5nzwRJMzc7H0pfVirjghWdXB9q04IdKVHJaVIfml5Ppk5J3M82h8sT4TFqTQJxNKCsto7QUrfpwCCM7XElvKvTud8O5kQR2xVLfNfppA9r+7IrtPhQSjtHzshIvZsKECSqXZPE6/vjjVS52AjwvEjKeCcPnMallnMrc92Vk2Hpeu10q5DlaOtAdlTXzouux+cjNmYqSRY1o29VfGDxU+2/92XzkT8zBzAXN6OqnYV1oX9eKLncHOreZ/54EaHu737BRqnqgEe2vhfDo3E403lWC/JxsZHKEnhb80IAGTg9UoWyGDbl3xXZ24oFtuj1Mv9cgQnYlKb7xAX9lZ/SEbOReQQJ7W7XvGt1TiaLLJmP0xFyq9FjdL0IyMb7H8bTTTlO5QCKJOAxGyolXgOdFaDPAJyIZRFLojzaYVW/S60s9AQasc3UZimbkIjcglaDhNbWBzmE3WhfkI//GRjh1zcmyo/j2WjRt2YmegxxUcBA9zk2ov92BLLjR/lAZ8vMq0RpwP5OHpsKyXbpy0r7bH5qPmey52Wf6DRulukW0ftpoTL2mAU5jXcXdjrrrcsnby8X8n7WiY48/yiljkh326TnKy/HA+atWtGn5JFCQjz7fa9C8i064+iol/vM96EMjyENvXjATky0qO1lTVKDKTcVwTMnSKiGtPyvDVHsZmmXasiHFsSVeJs/rrfc+TEh674PAsEzp8zLShYZSQ5NeX5qPRrUF07GmGW0vO+EMSB5TDd1DwuVAyUNOypE4TC/E4uadOLi3Ey3LF6L0UhsytGbvdPrMgYrlm+DaVgMH3dOe7Q0oL62jo9HJQLoK7Xa6u0lgW1FJ3tHMBeRh9dm2LNgKilF+Oxm3Gxya59K1phJlyoNyPUne37SZqHrS2ReAkFVQjtrWTk1Ee1yd6HSuQrkeqLDfm7xmqePssOkDg193Gc5DIqGr1Pd7/eeb1/cNjbjQH0LfD68bHesasFSNPfNVaIpQRp7w0tVdEXlv3pcbUJaXj7KH2uFiezaexOq/6rHJ2a1do+4uFaiysgWbukhU2xdr9wt2NaPsSnOFR0hlUl68xo0bp3LhMYrI595D+PDjzxOWjIh0RY/mpRjGDuX478M+nA+UoHyFz+za5jWhc9t61My1If04bZUl6RctRsXVvrxnYxOaXvTlA+hqQfkc8vK2K4uaRcL36FZ0H+zGzvYWrFpOxu3RxShWItT1WCvqHpiJ3OvI+9OfkfF5qCAhdbWvwsI5diWiDBncvmAJF1xWfUCDQo7mBWps7kJXLCLKM25wf97qZjT8VPXnLViKtrh5UV1wkaftfacdDTfPRPbobORfxQOkfWPPfBWaNjSTJ1xdOhU5jmq0+Z2ofnj+XI2i2ZVoVtfVdnUtNu0gsbq/Ao7pWYZr5CeroIbEbKFPUHfR9yxLXlOvEB3HlHglLZBCPC8D2Si8k8cN9U+Lr1SbELm3sRj5xw69uY+b/wxTBb1WhyoyJJoZGl+BmkdLkRNCtBgvNwH9tAw1a9QK8shGW4XW/bkZzbqoTalACzc53pCHrIBtHcgvUNn9TajRj4UZ70Dtxq2oZyFVq/xkwGYzhvolj5xsvdeLznGYIBUOaOBZNxofqML8YhLqnEzDjBtlqLxH9ec95II3S/2RBV17rDoze9BzQGUDcKHtrpnImTgTlb9qDzvswr15KYoKuNKhVhjZ34yKOUvRrmyY7dYWbP3dQjhCHKtO+uxqVM/zNfZyRaU1Wd6yEBUpL148QC1SOGDj1MwxvpShlsFSHD8frs2Grj1WjVFkvGfzuKH+qSQvcqPe9mhDnyHC/gaUjEpDZo7elGRK9snITEvD6OxclNzT7PeOyPvImaSyVrAIralHcRADl2/X5wT0wNO3TxsqVrZg4XRVtCAjfbTKxRhVGSdyJukNdE60P0PioPoftamhVvub53hqKA5o4Fk35i+qQ+PadjgNfXk6WVMKUb6sFPZQlYjDVo17Thgn2fDjQvs6XbQyYJ9bQxUJNVBaS53YRJWe+iUVKC1QF2lXKyp/ZGwOZjxovacazfo1Im+qaXkx7TFSMlA4q9CX3U/eYNK8ZSEajOIV7TgvNtpx46mnnmIF6JcuvvhitYWQauxc5vBfq1tb1NrgGLd3LNup1lrQ09RbOt5/D8SWMug7OtUOfbTcGrhNyGNgOhb32g3bc8qY19Tboz4OSmtF3/YVrWpdMjAcR3Qpq9d2kb3XMae8t2JJfW/TM1t7d+47qHZqgeF7jOfUeL7952FT78Jz/et9qf+16sehrb2LL9G3z+ld+Jxaz7jqe0l6/J+1qfXR8ExFL4kd/b2jt3aHWickjW9/+9vqeqL3Jz/5iVobiFEzJkyYoNZGRso1GwrHCJu3oq1fK0AGcqYXopSDKawSR49dZAcZXFTcWYuWHd3YdGeIuRzGl6L8pqChAz6mTDUFF+ShakFpFDX6JLK/A9UrmlTBgiwb7Co4pebhJpBAYSd7O5/6p4Ta1LoK9XeT13NlHmwRzrrh2ud3sWw5hrFmfXDwjsrqFFSjPtS1Yo7LQ9EsfRsXnNv9vpdnC90vKo9LylE2W+WjgTzk/r6mkMqk/DgvEa/hR4dza4AhyZhejlVd3XjTuR5NHExhlTh6TDe4yxai+MIwxnZ2EQrDqVBGBjKNgSQFJSi+SOUjJCnNhvtbUTmrEEtNbzHWIyM1gereiU4VnLL41lKfQPHUUH0RgrHhOhCtBGSg9Kby4BGIBvKm+eapZ4wi2bXbL2SO4uLYpp/qa+7MQc4UlRVSGmOzITlTUTUdplyfl3Bs0L3f8KrKc8vRuHEVyqdEVvOPlOI8RwQeFBmyaSpLOGYXRmRkjVj3CyYW1+pGfySlzvTFaFWRkQMVqFiwDuRgClE0O0JflioTegiKUST99wtHWEZ7hXy0b1NRhgU22MIEBgmpgVG8mGi8L/G8hISTdWUxigPv0Rjh90qpLJGdFUEYGrzwHlLZARjGwSbn9hZ0b1mPVf9haLbLTPAUUeGwDOQgLp0KW6QHlm09W376cfoO8pA7Q2WjwdOK1rU+cc0rcERdQRGSg4iXkNK4X49tXjzva82oLp6JmT9qU02QZDz7mvDsyMhW2ZC40P1nlY3RMB4MZrQTSjqyLi1E+WVJMMO7ohwQPc0WWzOfYab6nIl6c6I7hpk8PGi9qxoNXLEZX4rKW2M6GiEJjBo1Snuzvo7x5ZXhGBTxyqQaozC8yJ9meG39ujosXRNhPwrP0PBYNUpmZGP0tDIsXduObss+p0xkRtJ0ZpwN/dxsZEXoIbjJsOoEvMsqjvC4LG0AsTYh8FI0vhzmHBleDjlY2CZZ+UmBOHKiOCrj7ByGa2ObYlNeZSc6d0R4rzCHXWi+0aEGwmeg9BcNKI2Lly/EE683eAXQKF48B22kDIp4mV9CJhz7ZM0tQ0Xf+6hcaLwmHyUPtMPqzSfe/V3oWF2HyuJc3wwNNy5Fq5rR3XZ1PZp+UagMm7EJMEKM7yvjKa5UNhw9UQctsO76xmC5eYJg7fUinHgslprZ4roi35g2nlGfx7RNoOPpmxC4GvOXtYSOlktGP85x4fsps7IiPasmenr8v3c2eZna/eJB85JqtIYb7XygC+0rKjFz4mSUPcZTj2XAcX87GtVAZSH5GGeS37Nnj8r1h9+KrHPkiPklwcGJq3ixC2iFeF6pi+3c2OvyPZ+GMLUZxahZVmHwFLrQusg3fdBUw+Bk3+DaqcgvrULDWv98g2QSUbhkE9qbKwwDao1NgBFinDWf9hNTyEhAZdD4+hTfxMT8GzQxylZzQPIEwdrrRTjxVElqZosn23zTJVnMqM9eQ3FBJAEoqUfmmBiPersHff7tcYWo+JEalLyrASV0Lqc6SjBfF34tqfkSeeaQsVMx87YG35yW4+0of6ITm/7LHtv1FRKCUbxc/tme+yGelxAbY9ItO9CDYWxGcu63nHKhj4w59di6pRal043GzY0uw0S+XWY7Pj4Hjpvqsam7G+vvdiArqLcRbLqiQLpeN/TenJsT1W/tQ5sUtwvNNxeRUI02vD7FNzGx8TfwjOc8z6M2Vk2NX9PGYOlTbD3XaZh9wpd8s+r3oOXW0EeXNzGmo48ePi6VDcDSC3Mg5zyVjZqugACcnFub0L6skKotDN0nm1vRqAu/ltR8iX0zh2T57pUdnVg1b5DOjRAxQ8rzEvEaghSUYeE8u2YwbBkR1KBnOaLqU8i4dCGatnVjZ2stKubkWU7e63vFxULfzO5738SmlRVB5rPLQfaldIwkcHlzCpEbQbAht1L6NsuAfXzkHgK/4VXfOoMEPp325CIhTD/LgeKbSJTurMUqEqP1W3ZqAnTwEAuQb8ZznudRG6umxq9pY7D0KbZm0bnWX9WvktVks1aMjqAJL2bsDiye44B9dilql1f7X8WikYGcWYvpPtEFgs5Hlj4hcxadK7U6IjKQoVdmsmg/ARXtdNjvXA/X3q1YtaQUhX2vptHhQe7qXmneijc/7Q5xrwjJZtIk/7xu/G6vzz77TJUCidXzSuNpNlR+wOzbt8/ypWPvvfcesrNjbBcXUg7PnxtQ8zsPbNdVoPyiyAWhD57pfD/LCglEIl5pb+awFx4vfVcSxkYNGHWuuvf3wHZh6Nn4hxJe+k3pEc74IQxN3njjDZx7bl/HN1577TVccMEFquSHtcHt9jVf/Pa3v8W1116r5cMRV/H6+OOPkWFRe+dIkxNOOEGVBEEQhGMd9qKMcRDr1q3Dv/zLv6iSn7POOgvvvvuulm9qakJpaamWD0fCmw1PPPFEES5BEIRhBvdlnXnmmaoUPGjD2OeVUgEb0t8lCIIwPDH2ewUL2jD2eSUtYIMPwqiijIiXIAjC8CSScPmU8LwYcxOhiJcgCMLwJJJw+ZTwvBizeJknXhQEQRCGB0PK8+LxMUZEvARBEIYnRvHyeDyWApYynpc5aEPESxAEYXiSl5encj42bdqkcn5i9rx443gmqz4v4+fRKKsgCIIwdDn55JORm+t/e3Z7e99Mo32YZ9iINCW8z+vUU09VOUEQBGG4UVBQoHLhPa+omg35D+OZzH1eWVlZAZ8bVVYQBEE4tjGKF89x+Morr6iSD3Ofl1EvQiWJNhQEQRAShsPh0MRGZ8uWLSrnw/iiyhEjIpekuIuX+ctFvARBEIYvo0ePxqWXXqpKwObNm1XOB0/orhPNuOC4i5cZES9BEIThjVG8uN/r888/VyVg//79Khfdi4sTKl7chMgT8wqCIAjDl29961sqB+29Xsamw08//VTlUsjzGjdunMoJgiAIwxUO2jBGnv/pT3/SlkYPjBHxEgRBEFIGDtgwNh3qnpexv4tJmWZDHqAmCIIgCGbx2rVrV0B/FyOelyAIgpBSXH755SrnY+3atQHilZaWljqelwxIFgRBEJgZM2agsLBQlYCnn3465jB5JqHiddJJJ6mcIAiCMNy5+uqrVQ7461//GnOYPCPiJQiCIAwKLF6TJk1SJeD1119XuRTwvA4dOqRyIl6CIAiCH9YEo/fFTYc60YpXWi+h8nHBbrdj+/btWv6HP/whfvnLX2p5QdA5evSoNgEnL/UUqhzrZ3p5OMCd3Zx4ejZOqZQXBCPbtm3DN77xDVXyM3fuXDQ3N6tSeOIuXueffz7++c9/avm77roLS5cu1fKCNfxemi+//LIvsedqLBtTLJ9F8jeRCMBAPzOWheEFB27xOJ+BLCPZJtjSvI7TqFGjtBfnRrKMZBvjUghPUVER2traVMlHRUUF6uvrVSk8cRevs88+G3v37tXyP/vZz/DjH/9Yy6cCbKx5BmNOBw8e7JfnpTFvXH7xxRf9jL+eBiIcYswF4diCRSycwJmXofKxfhbNPthLHkx+/etf44YbblAlH3fffTeWLFmiSuGJu3hNmDChL4JkxYoVuOWWW7S8ETbaRmEIlQ/2WTRLPc+CIQiCIATC72HkeWhjTTxzfLg8Jx2e3/DCCy/Enj171BrgwQcfxB133KFK4Ym7eLGK6yJxzjnnaAdvFhMWLyEyuKlj7NixQZP55Z9GuDalN5tw30OoPC/N+Wg+M5dTaT/xgB8TYxOoVYpkm3CJm5H5wTYnngPuj3/8I55//nl1RIIwtODmWqOo8YS8xlB59sauv/56VQpP3MVrsN3PZPOTn/wEixcv1owLJxZnPc/pWIT7rtjIciWFl3oylhPxmZWxt0rmvrZ4pDg/JoIgmHjggQdQVVWlSuGJq3i53W5kZ2erkiAIQxXdazd6sLy0WhfLNsZtzeV4fGbeLpoU6m/5s3ijVwZ5aczHuk5PsZS5ssjJ3DcfLB9PODKdI9QjJa7ixSHyHCqvc9FFF2H69Ol9HonRK7HK8wkUhKEOGzhjZ3iojvNoy3qknDGZ10VbtlqXCCMtHHtwIJtV4i4iq/XG9O677+L+++9XewJ27twJm82mSuGJq3hxm/zs2bNVCSgpKcH//M//qFJ4+AcZRc4ocGbl11Mk60Jtw7UNTtw0ZM5brYs2fyzChi1Y0munVmmgn7GBjTXpBjrWxH9vJSZWZT5eQRBC89JLL+GSSy5RJWhidsYZZ6hSeOIqXo8//jj+/d//XZWAadOm4dVXX1UlQRAEQfCxYcOGgIl6Dxw4ENWsTHFtG+A+LyO7d+/WvBtBEARBMPLRRx+pnC8SMdrpBBMqXtzuyS8cEwRBEAQjRvGK5cXFCRUv5h//+IfKCYIgCIKPDz/8UOVEvARBEIQhQsp7XvokvYIgCIKgk/LixUEbgiAIgmAkZcTL4/FoyUwyPC99rFWy4bm7kgmPgojjSIiYSIVjEAQh9UgZ8bLyuhg+wHfeeUeVBodUMZg8oWoySQURT4Vj0Ke/STbGSUiTQSpcCx68zymZpIp9SPa1SDYDDdhIO3ToUFyuIs92PWvWLFUK5Nlnn4XD4VCl4cMHH3yA0047TZWE4Y7cD4KRoXQ/JGLCdf7tuvfFLy6+7777tHykJMzz+spXvqJyEnEoCIIwlNG91XglbgkZaLNh3KaH+sUvfoGFCxdq+VNOOQUXX3yxNv0Hc/vtt2P58uVafjDQm4h41HYyYUHPyspSpcEnFc6DHIMfuR/kGIwM5/uBvc7TTz9dlYCVK1fipptuUqXIiJvn1d3drXLQJlc899xzVQkyy4YgCILQh9HrYlImYIPF67zzzlMlaTYUBEEQ/KS0eBk9r7ffflt7BYkgCIIgGCMNmXHjxqlc5CRMvMxvVOY2TkEQBEEwe15jxoxRuciJm3i9//77Kgecc845/UJA9+3bp3KCIAjCcMbseY0dO1blIicu4sVvQDaKk4iXIAiCEIxPPvlE5XwkTbyMTYbMpEmTtPDLzMxMtUbESxAEQbAmaeJlDJNn2PNijN6X9HkJgiAIVhx//PEqFzlxF68RI0b0DXqbMGGCtmTE8xIEQRDiRdybDTnSUMfoeYl4RclRwNUFVD0K5NYAafcCU38BzG8Bmmm9J7lzmwqCICSVuHteRvESzytGPgcamoDJTwF1bwNO3ywu6PoEaNwBlNF62y+BpU4RMUEQhjYjR45UuegYNM9L+rwihMSofSNQ+YYqB8FNQlb9e6BwNdBxQK0UBEEYYsQ6t2JcPa8L1n2Ir86t0PLve3vxfP4PtTwjnldkeEnj2buKlI7dQPETQFvgmD9BEISUhvXiB4vrtOh01osrno/u/YdxES99wNn5f16J34+5CL979yjmvfg5vpHudwlEvCLD9Q/yvFQzYR/pwOICoInSwq8AdrVax02CV9ZMAtb/RdaCIAgpCevF6xdfj6k33aPpxRVZ0XlgcREvfcDZi08+hLmj9qBm5xe44OQR+NcxfsHyeDwyv2E4SLScb5MYqaLO4u8DNZcDpZRq5wFb7wBWTQNs6nPGsx+oWgd0falWhIEuB9wRbisIghBvWC/O3b4Gu6ZeqelF1ZQT1CeRERfx+vTTT7XlN2b9C9YfmYjvZo3EC/uOYM9JE7X1OtLvFQYSE1ePyiv4dT8l/vd6aqRnAOUl5KFdCxQbhkd0vUHemUsVgkEC2UYixwEf9lW0D0N/mfcjoG4NeXFNQEMXldV6ITXx0rXr+DvQuFkiUIWhB+vFW7bZyP7g75pebP7A3OQUmrh6XnuuXAx7+meo/eoJeOSi0bj/7RO19TrSdBgGEq/uz1VekXM6pSDedBa5Xo3/RkJmOM3suemi4+0ZgQ3bRqLhLyRS71GZjJt7B1D9is+74+bG1t2+bfm7m0jUqsgYNtO6yqdouyj63oQYoGfVTRUGJ1U4Oqji4Y7k2aXr1P4CVWh+AYyuBfKpsjGfyhyBWvWSVDiEoQPrxSnv78TYtT/X9KJqe3R3b1w9r+3/9xzM9u7UXvP8jVNG4pUrAmcKToR4dT0wE5k5uSha0ArXARc61jXgZ3fcjGtmzUDujKnITktDmill23LpsyKULViKhnUd9HdqZ0nGS4apx2TAsseRpxXiKmWcDdTOIQ9MCRwLlLYksbr5VyNw1bNpqNwIzFxJBm8T1c5p/8ausfadZDT5b+i+6TJdntZO8gSjqwwdm1DdrJm8mzo6f22GykFEcIXhHTqXW4CfbzwVJQ+T4Cyj63ovkFZDy+VA7uO07km6hmtDCBit7+iga0ge80w6llZffTEAlwTtCEMI1otNlYXo7Oy01ItwDFi8PvvsMxw5ckSVAueoYqEYjLFenj1OtD1UgsljJyP/qkrc0/AY1j6/Hc6Xu/r1HzHuXU76rA3ND1Wj8qp8+rtMTL5iPho2W209iJB4mZt+0tNVJgQZ5wE1swA7CZj9LC2+A93vUo2e9mekm1RrxKmBfWVd7wM7ydtj4ew2bd/zmTRFsfh0kPCUk3dTRcuiR8kj/Zv6LAheEpb2bbRdE4nS/SRQq3wVh//vjVFoJW+3g8631Z3WsZeuhZUy0v7qnqB9PUuiZfLMmRx65ssvACqm+a69IAwlkjbOS/e6dMwvFTOK14D6vNxONP60DEWF1WgPG1WXhSlfn43S2ytQsaQeTc1NhrQKtXdWoHyOA/ZJGWp7D1wbG1HpsCG3tA4d+9XqwcZCKEZHGIBjmwE0fp8MmHqBdQ4tS/2nXiN/MnA2/eRso4UjY6h5nmQ0vaZafzp997A3hnRNdnYHeltddBsHaAydt67dQMN6oIw8qdG/IO+I8ktpXUcUnmtFHl0jc+WThGvpb0g4yeMzk5cDtMwH3qwCVl1Nnht54QmFfoubng0n/a62V+h+I0Gvo99Z9RQwnwS6bDWtk5emC1ES6zivtF5u4xsA//znP3H++eerEhlClwtnnXVW3wEVFBTg+eef1/L33HMP7rvvPi0fLdw8OHVRO+UcqN2xCQsvNK8nzi1F/WM1uP6iiZrhjeSkeF9rRcPyBtT+qr2vNpwxvQKNG+tRPF6tiBEevJ3FERcR4nVRDf1xMgyqzJTPBuovjk1EDh8+As/7aXhuzwikTwQKybilk1gtJUNTbWhiWjyXyqPpu39N320Q0Czy4rb+e/A+t0g4fNhnvWO9QePBgI7B4nzZ6TyWnA4cpM+6SNic9Fm4OBlLqOroOI32R9cmfypdHxKjgOtM+2/4LVBpFi7aqKYIWBilpxX2PNC195BYctAQe+ndlOey5p2zx2jyzC05Hui9S+UtGPL3QxyJ1j7Em2Seh3vvvbdPC1g/du3apeWjIe6el3lq+xNO8Ic/8nu/YsXzqSkMz4qJuXBcmqMJV6SkX1iMhSs3wbWNxGqKb51newPKyQPr8hUHD/aezVfEwhuLnF5knH4Upd/01co1Q0fnxnx+uK/k4yMknqbvGj1KZYYz3JxKImKEg2Kqt5Go/R1ojUa4Rh1FMXnEtbOoUnAbid89wKZbqExCVGwWLroWbRv7e1zpp/i8rcWxNhEeGIHmdSS+DwNFeuJ+t/upJrsEyPylrw+u6PfkTW2m72cP650IhYvx2UNBCIkunEys4jlg8TK/VMzcbBgv8ere71S5xJB+UQVatrSgQhewjTWoWR22fTK+0NUwG6SDAxIvC/g7TPeKm34mXyXzd2vbDfgOGdp4Sbi6YzTIeeRVVdiBVVcCnQtoP+UfoKWMPCaqTPBnocTHRaJRTbd8QPPkGBKSa0joYm0ROJqGze0jUEb75r63Nj2RAJv7R2Ol8GKVEYQQpIR4GT0v9ro4SMOIUby8Xqve6BRifDFq7iqFryfMg+bNqjlysKBraI4sNHtD0eD550hcVnOcNiM9p0yqZTvpEpjF6yCt+4Ivm+m7+VhGq3xCod/oYQP6BtC+G+ga5DpDKLwctBKBeOWc6GuWrSkgb+pmn1fF3lX994HyrwN28pgihacIW7qJzocq6yz8LlCavFamsOSRN1g/UxUEIQQp53lZvQ0zXp7XYJExtwzl56rC665BbTpMP57EwixecaoRMx7aF1cfRvsviYaHvAsvC6cq9zHguyMEdO86eczZ48Bkbq7ipqsngZlNwNRf0jpKVZtJyJJc3+GBwP53JvjIoBNV/BUlVDcCPSRUby4C1lN+8eWA44z+lZCIISHf2kEelul3szBUXaAKsTKiFwXfPop6GwkteX7hUjH9jvLzfH1ri2fQ7+VEnqTDwtbknAU0zB5Y/6gwfDCKV0pEG5qbDJl0Q6x37OLVBVf0/XmxcVw+cvNUfocrto74WKEHP8P0QtF4ihcLBo8jM3teHBLfQ/dPPL2+oNDv4b6cmctIrFrIw6ATbHWOXeR91b1AQlZLRpuMebJC9nvoOMy9rblfA5rmKaEibysjjiLv3e+bLSMAuifKvwlkxeN7xh1FxbUktOQVhkst5EGuKgNqS3wBIospac3qfrvjYwxt8wPyLgPnJBCEoKSc52UlXkPN8wqADMmgVvzpGmaaxKuHI77iZbjpfuFweLN4sUfGIadmr4+37+tzoyWHSXeQYW3+CwkLCRDP3NH6N/KgIhxa4HmPPK1VQBHP+BGpKNMx1D0LlKwlQYunkEcC/eZu8rwGc/SfazedG7PXdT6dM/KEkg5di7aX6fhUUaf8MvLUBhiZKwwvjPPcSrNh3OhEJ9X0NWbl+GdwdzvRlujZOOgacpOUke6PScDIaMQF2o+VePG6HlIvs+fVQ5eLAxZaSTzyeTaIelo+BZRxFBwJEM/cwaKSS+uLyItymqLy/KTBxS/RfJQ8rQ/UKhPcZOogA6g3WeWZRLyd/n4+fd+gemAs2KH63+hznuC46206PhJxnmNw6QaV6Jw1On3CHnEFiK7DVqocmD1Rx4Vx8roGiGcveZym98zZcoCF9JD0a3IWhBAYPS9zxHqkDPiRCNdsONTEy7O2Fa2v+/L2S/JBzyawpwEl03JRxLNxzKjq/8qSeMGe10kqr+CXTrqCWT9az5Pxtr5EXhAZ9moSksomEgnybuavB3abj5OMLQthv4HPtI6/wixqPK0RT0dUQmLeEUY02khcCnmc2EdqhQHP6yNQ9Xv6zOK8lX4d2FRJHt5dvqXeZLV1AVBvmpCYBaIliPglBD5fFs9VO4mSY5k/tHwqifJMOvc8x2A1XQst0TmbT7+ZhT37FyRm9DdfhDmHPCC53wD5MVRhyFb5COEJltvoGOrW0TE8TomOrZUENmIRtYKuXfuLtF/jb6AKRsVMEjBTRUMQwmEUr48+sjAaESCel5HDHahd1qBqvoUov1F1fo3JQe5ldnCgV1Z2ZkIj8LLMMyyQp9e0hcRpExlAMoaaOD1CBu3nZDwpTX2SxIVq+pXkCS0l496wG2gm0WncBvzBbAjJ8HjoErBIBdSUdfGyuBu6whlcAzzRb8lvyMj5bwl4943AoqfT0GoSrizyrlpIpJqu9Hlc/aDzUMF9LMbzwf1l/xigEY4G+j7zlFkatI6neIoUHujLb72+7+/pIY/dS152t2mDLKoPciRjJHCzbN1quieWkydM94Q2Rotu5ka6L0pIYBe9NCLmc+d5i/ZD95aRQqp4lJ2hCoIQBUbx6umJYAyvBQn3vOITsOHSmp0STceShVhKtUvGdudCVEzy5TG+EItbO9Hd24vu9sXIM3sucYKNT4fF9I/NJESVJGA87kcTJzdtF4EVOmgSDEZbZxYvEigvd3rFoWmKa/1sLLXDo/1u/ssIPGY2yCRcTdcBxeH6cTJoG//kLRpdJMyD1nRI58oT5jxncYg81Wq0qDw7JVoW9n8MNB776xg0hehA05pvVV6HPfHMMNeFz3nDU+TlrSTBInG3CoBhVvwlDRt6AoeyRAQdV5vZ66JKRfmM+AarCMMHo3ixAxTLux7Turu7BzQ91LXXXos//elPWv6HP/whFi1apOVHjBihjflauXKlNi0Uc+GFF2Ljxo1anj/jman0cWHGWar0z/z59bgruxyPaWsuxU82r8GtNt82ux++Gt/66Z+1T/DNn+BP/3MLzqX1/Jkegql/j3HJGNd9sO6/UHLTY+DK5bjLf4KW39yCC5VIBfubSNaFZgQ+8YzG/+5Kx/rdo9AW3Vuww9CL0gsP4x+vjQJVwBW9uGXmJyj1jMH/fWUk+lrgRh5G3VVe7Ns8Bj8P0sdz9qlf4j8v+RzfyToC72fH4W0P/f2nI/H+R6PQ2nUcXlbbMeNO9aLl+x/jvINj8V8tJ2K10XsZcRQ//l4Pfnj2oaDnkPGtH4m3X83E1Vvp+7S1dBxnfo41hZ/gbLq0oc63scxLTtHcD0zvF6PxyNPjcJ9Fq8alZ36JOV/7DP/3nC9xfL/9jMTH+0ej+cWTsGIv3VvaWh+X2g6g8bIDGNfP6NO9sPdklK8/Aepu1jhv4uf4zfd8v7c/dF52j8V9fzoBbRE9+72Ye2kPfnGhlTsZjDR88f7JuO336QHiNXP6J2ik+8HfrhIZR4/6dqLbB8Z8/o158zaM1Xah8oyxzEtOUd8Pps91gv1NJOuSifFaDDbl5eVoa/NPhPfqq6/itNN8tVmrc2Q8h4yWp/8GdAYvueQSvPTSS1r+Zz/7GaqqqrS8HkGyYsUK3HbbbVreZrNh586dWj46WlGZVoIGLR9ibsOCWuxsX4jzlKpHGsXiXlMJxzUNvjFdU3imjYHPa8iEmruMX1lS/TRQF6c+nCxypaZyE1Mm5cljyTkFOJOM1X0b0qCcSY1ynhOPvAnHJjo+tY49rvp/o2P6I9XcLY6HPaXWfwfyrJqv6FQ3rwbKjB35x5NndTN9RzcwuwXYrlYztq8A6+dGPh7IRbfWzA1+b8JuIw/gajqmKJ43vZYXU1QTnSt+4eNWOi88Fo7HM/GEuDmRRCiQbeigY3eQ56w7cFlnAO10Lq36ibzkVXJQS6tBJNLpPtw6n363+ftoG+df6HpaDGbWoO1LJ5LnuJfOl8F7nH3xUbTOHhF5gAV9T/s6ugbGL+HrS8dUGs5ztmBA1yJOpMIxMMN5bsOrrroK69bRjaVgXWB9iIYBS+7QDpX3wvlQiUG4StG0Lj7CFQ7vpz6DGCksTg5unjofWHwxsGo2iUAZXfQFvtkcun8MbKI6wioShhr6rJy2uah/F6TWbJhG92pAvx0ZKO8R6z4vprwgiHAxtC8bGbEAY0jf0UMGs5t+3x61SqdweuTCxXB/kXGQcCYdR8wDgGOBflje10nw6ZwunkUGm56viISLoePMIbHSgn4UbjovwWbsSB9jmvGf4CbBdvN9woLCkZ5WwkXnlmfi6KY6ZBO/adskMFkZUdZV6fz3vbBUYTuH7sVBeEaEYxdjsyETS9DGgM3AkI029DrRUJoPx4JWTbgyLl2I9VuaUKrPrpFgMiYAuRF2xDOV5G3wJK5GcSo8jwwJeVjRGHNt0LOFeHCfl9V+uOZfRMYqFBl0DAEBcWRcOTCEZwMLaIUkw5wbTeQcHWvnW7QfVWRySMD1F9kMRXgQekYw8ab7wWb+cXQuW16h80hLvdxBwjW/o3/flo2Ecj15vLV5JFL0HTzNVLuxj42ur43OX6Tay7jp/G81DQ9xTI3O8xUEM2bx8vCYkygZ8C0YTbRhqsxt6F5XjZk5uahc7STjmgH7DU3o3FwbwUBLL7pWL0XlooaBv/OLjFTZ18gIqGIOlXnCVp4Pb+sMtdJATzTdFCFg8eJQ+X4GjI2jxd1gP5MMXhhrl0keg9nmsodnjmrMoLqNzRg9GAbPu1Trf08VGNqZw+jGpDp0DvhN1ZpXr7CdTkIfTLxI2BzkWZsbkrjZspFERAuc2ED3jYVwFdI9w9NT8Rg5DXosG9qAZsN9k3VqLwomROF50T2x802Td8fXIExlRhDCYRavjz/+WOUiZ8DiNTjRhvHBu6sZlY5sZF+11FcjzXKg4ned6Hy0NKKmLM/aKhSVVqPhgUpULNdHMscInfm8mWTcrifvohJ48w7fqzJ4tvEs8mTMNprnH4wH2gsnLcTrIP9ncTfkcJNguLuEjG6myupwlB5feqOoRVN10SLoyFAbgwTs3FxlVsl4Qt/lJrFs/wcZ7OgrgoGw0DwLVBub3EYcRdFX6ZyEOJ82qtCUmR8j2lfN76G99LF8W3/h4mbdJvLGtXuYfoOL1JJfDln1ju9zndm5RzHFfOFDQcLnNE3smEHnP5oKiCBYYQ4SGXTxYuEyxnukarOh97VmVF+Vi2xbmXrVfxbs82qxybkJ9VdHUZU/Lh0ZWrXYhvwZ0XUuWkLGhmcosJs8vkwyEObad8+B6Ix/MA5yTXxkf/Fio2c1fi2Hji2cvUsf1V/g2Mk+kUTY+Dt43r6w/XxkqDv+ApQ8QobfuC0JZMVltL8IKhn9+DIN7o/T0MVDEUhM2v5GHgnVPbSB3WtILB72jZsbvYS8opXAzNVALn1/c7BjpWN0vU0elb/RwQ+dxy7ylKp4GiyT0Fx4thel4bwWuvbleRaVFxLTOjp2c6R9xXeB+svp/HPf1AskWvRbJpPINZqOLeds4LZpvWGvZQB0DV3m/ZxM92cs10AQDJgn4x108TI2GTJWzYajRvnfaBhLLH+seN3b0UoeUsmMbIyeVoal61QT4ZWL0dTlQucTC7UAiGjIuLIWnd0cZrsT9VcmzgVgj8U8tifceKOIUZ5XP8joat6XEdouxyLoIxJ6yFM8/UzyJI3Wkr6j6nckGJvI0JKBb6fEIsKvkufB1/xSxMk1JCQkKm2mZtLF/GqRs1TBBL9OpWMHGWz6uyoSHn7RYn6tb1/8KphRy0Zi4kMjMZWEKZ+/Zy0JFnlF2sBuPgYSKR43F3CK2XBbzK7heYME4he070dpH/Rb+qaDIs+IvR1+qeNUEsQ6k8pwv+CP8z6LyMO3fZ08LdP4Niu4GTadBLmcfm82z4Symc6BVXM2eUq1VwHTo1IuOgV0Dc2DtPnejHI3gtAPc4RjUjwvI1aeV3ywIadAZUOxowFlM3JxXvYojJ04AyWLGtD6MlmR8Tlw3FSLlq5udD5Tg9Ko2k6SADmr5iPkV87HY5Z37vP6gq662cuy1Ea6vzIjOVW0P/Nm2mtWSN/n/B+1QsGvGFm6hQwtGfiZ7PWQiFSRh8KDr3lqKXOTGO97YREJnuF1IB66pM0kVJUsFiRQ/DqV/BYSDxKjun+QMLIY0fe4WKhjhW7lvAkqr0P75KbMRtWE63yHjkufDspJ66nstPhObmpruIZ+78lH1JowkJdZSmJdH6ZRgCMx60i0WXyDtnLShakvQUwRtF6qzfQbEB6He1AQki5eZs8rceKVifRIHJ39LjhfdmKPVvvMgm12KWoe3YruvW9i08qFKE510dKh69pv5ncWA5UfCJoAWoiN1hRkNrxkRINGxhmxuIu6yZry8RZcfhT/dapvXbRwZGHTjeQ1zDAcL+208X9I9EioGoKIRbRwk2cO/VY7eSh5dJ85TiNP7zISRNPt7NlH3mIUgToZtL/F3wW6biMxitLL58jDirlAi71/E3KkpNPxr/o32k8ULeNGrJqD+T7sEQETBkjSmw0/+8w/JQSPfD7xxChiv6MiC2U3LYZjElmW8RlaTVYne3ohyuc4YL/IDsecclTcWYuVG7Zh36d7sbOtCYtvyNPGSA0lWLjMnlEP1YL7Xk8SIekn9Y9sc5AndBqvM1z59FPIaJ+uhM0Az/RufkWLFel02fuNT/pCHe/JR7Fk3lE0TSOB8H0UlryzSLCuhDY4t9SqqTDUXUufcUABC1ApfWEFfe+SGb1YXkDHQN7MpjKg8xYS10VA772+xOPk3ryL1lfRd97hGy/HL1403zbpdFHC9rmx10Tf2TKPvuNHtB8OW4/gHFpCf1dMx+zkd4edHYWI0TngfrNO+h3Bmlojgn6rWbxcZGMiebO0IIQiHp5X2kBm2OCpnq644gotf/zxx2sBGeZR288//zwKCvxtfgOc0CMikjly3EjMI+jp8Hm2+C4O0iBPQwuTJ4EoIYMa7cwSnn0j8NzOEdq7sDjYhMPz08l7qH6G9k/r0k+m/ZKXwSLR8RJ5FoaxgjzGK9L567qcZKhfoL+nmrnjPPqey31h28ZrwXM3Nm0jY0wejN6Xwn0o2WMpkYDayEDnT6TfGKqyQbtrfApopXpTDnl0HFDCs4nkkPjaOLjE4ljjdj+QGPPvbKDETZIZJGbZJJSZ5OFoE+jS7809J/j5GuiMCtps8TvoHO8mYeImVjrXfV1r9J2FdA0dF5Dg0TW2Gkgd7XngAJuqZvoeHn92Jv022j9HfNoG0MCSCs9mKhwDM5xn2CgtLcXq1atVCbj00kuxZcsWVYqMAYkXz01VVFSk5dnrYk/MfEJEvIbnzakjx+BH7gc5BiPD+X6YN28efvOb36gS8LWvfQ3btxsnkgtPFPX4/hijB41RhYIgCIIQDLNgmoP/ImFA4qUrN5PsWowgCIIwNEi6eInnJQiCIESLOdowJT2vI0f8Y1vMBywIgiAMP8x6wfPeRjuJRcI9rwMHDqgcMGbMGJUTBEEQhitWzk603lfcPC8RL0EQBCESki5eRs8rWLOhiJcgCIJgxKoLKaU9L6uJewVBEIThxZDwvIwHJJ6XIAiCYKUXH31kmN4nAiRgQxAEQRhUrPSCZxyJhrg1G0qflyAIghAJxpcU67z//vsqFxnieQmCIAiDStLFSzwvQRAEIVr4LSRmxPMSBEEQUpqU8ryCideHH36ocsCpp8b4Sl1BEAThmCGl+ryCNRvu27dP5YAJEyaonCAIgjBcsRKvpEUbBvO8PvjgA5UT8RIEQRCsxaunpwdffqlesR4BCfW8PB5PwDYiXoIgCIJVwAYTTdNhQgM2jE2GzPjx41VOEARBGK5YeV5MNOKVRgLUq/JRc91112H16tVavry8HI888oiW1+no6MC3vvUtVfJNFZWenq5Kxz7cZHraaaepkjDckftBMDKc74eXXnoJl156qSr5+f3vf4/CwkJVCk1CPS9jfxdPyjuchEsQBEGwJh6eF3oHwJw5c9hr09KCBQu0dezJcWJWrlzZ9/nkyZO1dYOB8RiSSXd3t8olh1Q4D3IMfuR+kGMwMpzvh7///e992mBMS5cuVVuEZ9D6vCRYQxAEQWCSHrARLlTeKF4SrCEIgiAw8Wg2TGiovIzxEgRBEMwkXbyOHj2qcrSjEf13Jc2GgiAIgpmki5fR2zI2IeoY5zWUZkNBEASBCSZe0UwRNWjidcopp6icIAiCMJwJFrARzRRRCRWvjz76SOVkRnlBEATBB3czDbTpcEDiZYwwNAZvMKyePKOGjnhegiAIgk6wSSsGRbxCeV5Gr4sRz0sQBCE6vAeArrcB1+dqxTHE6NGjVS4QY3dTKBImXuYDEPEShiKeDdWYactF1TqPWiO43wOat1D6OxlVr1opBEUTIDpnTjfl/QHaQXG7gOpHgdwlZOBrgamUn0zLpf9QGxwjBBMvY4tdKAbN80pIs6GnC22rm9H+mv8J8rrd2PWXDVj929Vops+aVzei8TFe+lL7djfc++WJEyKhC40PLEX7Lifq1rWrdcMb1zbAsRIo20RpDRlYMqzOY+lxIjPWQb+x7lmg9Y3IxEaDtnO/4xP16tVAyXI6N/cDafcqAaJzlvuIT4iCnS8v1Y8a6ZzmP05CRd6W0/jdlN9K+z+WTnUw8frkk09ULjRpPEeUykcNzyT/6KN0NYh/+7d/w5NPPtknYn/4wx8wZ84cLT9mzJiI1TQqXqvDzGlVaIcNjtkZ9GB1wLVffRaGjEl5cFxZgrLbKlA8JTETBnPYZ1ZWlipFAd3F7j1d6HS64PF2a8vAmzYdOfZc2M6zI3e6DVlj1GoT+rUwVjIGm6F9DF2oc0xF1WbKFtRiZ/tCutNiJ+b7IU4M+FqQAW1rAYrI4+qD7r31NwOF41Q5DKl+P3jIuykk8elQ5fIioH4GP3H98XxAgvIWicweoJ2Erj0SZTkeaJoPlJ4WeD94yNuqeIrEz2IfGSfSMeWQIH4TKD5DrYwDyb4WF110EV555RVV8vPggw/ijjvuUKXgDEqzYVy8rsNuONc1o+1lq+abLrRvMAjX+EmY/vXpsBcUo/z2ClRwmlcI+0V22JTt8OzpQOtDVSixZSO3tA4dEYpe4vCia3U1SvImI3N0JrJt+SgqLUPZjVWoe6gBDQGpDlU3lqHosqnIHpuJyXklqH7MCXfgJRDiyQ4XyL4Mb8ha5OeRkTUIVd455FEEqTwlEy89zw0ktPnk/eSvIi8qwuFDPR+RqKg84zI0IHHzX8ffyCsikeH9Zj5MQr6ePC0S84iEixRw8XdJgExvQfGQ8FWQYJqFK4vMZv21QPciEryr4ytcqUCwgI1IPa8BiZcx2tAsXvEOk29dQCJzFRnsR4M035zrQMWyFnR2H8Sh7t3Y9uI2dLa3YNXyetRzemI9Ord1Ymd3Lw66tqJpWTkcmpB54FxdhfzLytD8uranweewC83X5WJq6VK0vkjellpNdS7kTC9EKYvvkno0NTdRWoXaOytQOtuOHG3ctweuF1ux9MZcZE8sQt3LkTxFQtSQMZQzS3fkWWRQFwA75wGbKLV+n4zsgKxI/GExKFsJVO4gsfmS0jtA1bMkRBFU7tz08BkrKZ0kViX1JFY/9zX/5a8lsery7TcS7CRA5RfQOSMP7k1yJmq+bvTiRsBLx1axhoTLtL/yy8mju40+I1c/Me1CyWegzYZDx/MKx8RCVNxZDHtW+EudPikPpXeuwibXTjTdnkcSQexqRtmVVWhPgvfi+lUVKp6kJ0KRQYK1+NGt6D7Ygzed69HE4ns3CdbcUkrlWLiMhKytE2+SUO9srlAiTLjbUDWvOim/QRhG0GNv+wrgoJRlPdY0abjpMSonz6jVJAaut4A2/1Sr1hwlL8dkNz2f099RxaUjgpoLN9+XktjUziJhn09e3D0kfiT0q8hrqpgB5JhNk3c0Gv5g8rjofNaW0d8U0P6S05o3aKRMwIZ5nFd8PS8XXInwitJtKF3ehsZbVU/GrjrUrRjsxiEnmp9oVd5WBvLuXI+ubetRc0Mewurwcemwza3Hpg21cOizb+1ywrlL5YcR3l2tqHugNaLatTAwXH8H6jYAS9dT2kiGPbKKcsLxvE0iQZ6RWbg0SJice8N4z7RNz8cqHw4yfY7T6PvIk2oqIa+qioSPUtO1wMJv0mfkoWaEsq70XZtePAnVxjZK2n4xebILz1PlY5xh4nnRLZcwo5SB4uW1WHiur9S2uS2gzTvhvN6O9hdV/pIqNCwrjL7GNX0hKnyxMQnB/VgZJk/IRO4CXWRDcNgL9ztd6Fjni+7kqE9f5Gd7ZMLCwSrb2wOiQ73h/s7TjHJbCaoWlWtGtR8HdmFt3c0osk9GZloa0tIyMfmKaq1GHTk9WjRYykAG2vUe0L6Dau4vkJiQiDS+RGWqe3lieVbImLp2Aw3rgMrHgZKHKdGy+ll6Juh7+uDtqHJURd9VvY3SX4CtkQ3LSSheqivXPh1EuBTcJx5SvOhv3cE2II+omESl9rvkTd0B9FaT+NwG1F9J3tY08qqi7PdjD/GXu0YEHE8heWdVA4kIGmKkrHgNqamhjitEyVy7L+/qHtyO+R0u6L14GTPsUEcRJW5064b4EgccF6p8KLxudDy2FGWFuZiazQY9DZk5ucgtrESrycvt2e+mB98D50NVqLEUhy60PlCJEsdUZI8ajeyJU5F/VRnKSstw3bzrtFRWOhNF9wQPN2fPael1ucjmYBX7TO1vOc20Z2N09mTMXNCojZOx5J1uVeEgdTHehm4nGhfMxMTMabjmx4+hbbven+iBa+NSFF1ZjY6IDT2d43dUdjD4nIRkNTB5CZBPQrKUxKKVhILDsItqgbT76bOVwMwWoGwzGT36bD5dm5kkOJk1tA1t1xZBLcxLdqKZBKqE9jm5iYTrFfpeegBaP6BEy6UdtK9fkzAaBcxETwjBGBToXDW20rEagius4CbBkKHv9Du6TYOB80iwWKQO3gW0lJFXlAfYtX6GAUCK1ULn9WVVZNKpfr/wsjDe2jFGUgM2jOL1xRdfqJyPofYur4yxmb7Mdg+6fblBwe32f1vhjHyVi5IX69G0ljPkRV5XGloAD7vQelcRcidmI//GajRvcKJLGTnPHiecGxpQMi/QqNvO1auD9LebDQLkbkfDzTORPXYqShY10GddIb3WLo+V6+JBxwMlyCXPqfpJZ9/fZ01xoPimCpTPccB2HAn8Q/OROy0XZQ909Pf+us0VDi8JbZm2/fyH2v3HlGXri0AtLcii89aA+jWRu1PeA27yKk3pgPowznjJiG6lH+UiY9tBj1I1CVMJeVc8ULUtgu9so+2KSNyqnZqttISb/8pJGMvIkLaajHYAZNQbSBzdQQy/N5niRcfURuelylSxsOcANZSM9HxGIhRCvPicd5sqM6PHAbmnxTdowkuPfIA3SxR/nSopKRi1mUiCeV4eSzvRnwGJ14knnqhy/dXSKF6nnWaKDY2aLrh4rE0C8R4+6Mucm+4L4Bgkeg7oF8qOnPOi/2bvyyQ2NyzVxqXYbm1E462mJ9YAb1s2IxclP2uDU3lqGZPsKJzHwwnKUXyRivwgo960zpfVyM7oE0TXyyR2feIwE5W/0sUhC/Y5i1H/zFbs3NuNbpX2vvwclv/nHNizSFinmWXVg9YFDhQuaqV9ElkOlHPE6L6D6O7ahJaV9VjVuon25wtMyeP+wUWFcCxoCxSwA14lXjlI97ah2pGD3AXNvt+YZcec/1yO517eh4PdO/siUBtucNCHHhJvta/XfecmNyCVoWEHf8i0ozovm7zKwFS2wh9oE0/S6cm0frSjgAz1Uh5saw5UILFpW0/ixlFuIdvR/DjpBG8NYlM8Ee4jEbjp+tSYBNpxgS+03GYKJuHm51Cel5fEzSxeAdDfeqjiwM21HbvpjqAKQjstu8J4fGa6XqdzaTwOOs6i8+MrkEOBpIqX8cuN4sUvqdy/39+hMHDxSjROtD2jhiXmkdHy5QaFPtFEJjKjqHl53+nQmsRyZlSidReJy+0taF9eHFR4PRuq4JhdiWbyLJmsggo07TiIHlcn1j/BwwlWoWVbF1puYvHzoK3D4GGNp2NTWezYirob80lAlDiQaDlub8LOT7vR2VqDiivzYDsrC1l6+loBbq35HTpd3WgyCauTPK7yh5z0bVkoXLKJxG4TVnHE6HjTY6wCU9qWFVOBmy/r0Pia76NAXKgrLcLSzW4SZQcqmnfi4N5O/K7mVhR8LSPAOGScl+MT5I5OdPLy3GxkkjA7TSnsoHc6Nsa5gsQ8ezLyr2v0CXE8CPZ00vrirwCL84BV3wVa5pCxvhxYeDbLtwmy6uvJwPYZ9y/T0Pp7MpbbuEoYCEfLlX/NF9a9nvZZQ/vrg7ySriB9WwdJDJOhXzyWq4YDRlSZcdBFXUXHbrNSAhKMUMfJ47jMZpOjFGu4qfaX9IQuocTNq+TR5jcBM2n9TFpOXQ6k1ZBnTJWB9nBCRuLYuTfwe7LGU9U1wkHeGvQ7WEDb6Bo2UKWep+mKqZ8zyQRrNkyq52X0uphUFy/PmgY0akETGSidXTionpdrr/7oHQwdmMCBELs60PxAFcqumEy1/nytScxLRnrxM13oJOEKFujBwlV4nT4Q24bi5Z1wtdej9ELzzUPe0Sz2SOi4Xjc0AZ6b459ZYn8rGh9jwaGtp5djVZcLm5aXwhZOeOlGDfi2F6tRsahd20/e3a1Yf7cjdKDKARLWzbq5peM3tBN6DvSoHKMiNndvQv1cG9KD7XOMEuTXPerBp+O7yK4NZA9Ik/x3Q/mjfo9STy2aILvRuaUdTrcLHeTJ8TQ+A4aeTKtH2zEN2LmIBGseGVUSrnISsGISnNICoPZGYBMZbofpqeaxS5rRPpqGF18YgQrjDBmKUtrPVg7rpr/nsO5C2mc5LY2+crCAh6R4XvSdTeQ9NhiaUB10zKtIeHNC3Uch6CETZryTGP7NddxUS+cwpEmle6iVzutMEraGN9Q6K+i4u0w7yjkVyI7gmFmsG6nikU9CyQLKA6QrX/BN01XYQvtNZvNtDBjHCRs5cOBAvxgKKwYkXsE8L+Pr/5mUFi8yxtX3NGrNThmzqlE9dzCly0gHam+vRIMWZdeApQsqUUlpfvFM5HKUHAdC2PJRtqgOzRt7kHlJMRaTZ9FNRrrmSn2glwX7V6NCF67xeVjYthUtt9uDNlG496vHlyyS/0HOJqFSWZ0pFWjcuArlMU2t5ULDsoa+GrNrTQVyZxShTP1mY+r7/WOnYn7fWLhc5BiisroNb1/lptO2SCI2p+QoL8WlRc/R44/abeSFmVLbIp+YM+kZBo9SpQzt52ehvLkbB7tJ0FwtKD9L23zgmJ7O8pk+L8vSq1DkkLiVk1cWAJ0L/hP3rhG456U0f6WEofpnPQlhEwlhjqmZjY250c66/I94AN7BFi/yPDrIaFcbKjA55CXWzg4tXFyhb1wHLGodiQX/MxKV5DXNf5yM/yrymkgM7v4nV0OCYyPTUEo3TQWd48V8ns8gcTedMxanKvqO9iDnikXOXEkdTdeAm4mDwUE1POfh1Ho6Xif9dmOTo6KDHo3GuLn8g4MxZsJMJN7XgMTL6HmxUn722Wdafsh4XoedqCstRwMbr/EOVC8b2Nx10ePRmip0PH9uQKUWZVeJajUVVONaqtFzlNz4HOTNKUfNw5vQua8bb3a0oCaUZ6Hhweo7F6BZeVwVK9voAQ8lzh60d7T6sgHTIWUgs6/dkHGgZnU9ivWxZdHyWita1/pvTjePTXu5Dc0BU2CZfr/alrHdWoFyNbTBjGNW8KbTAJRBD0dWVrbKhSc9iwQtXp3u9GQGGLRxZDjJDYokGs38u2z0+KWTAXx4cxoCuo5pw/p/JWNsFjuGavFbyeMw6AMOkmG26jPSmg0t1icK19+AhVTzMQpNDlXiW0g0yh6mqg15JmlLSJDo+AOg4+Q+zAd3pmHFrjQ07CaDTz+wmTzl1vdov3Ruv6o2NeI4j/Z9M3m8d5DIX0/nrIS8XkqraF3nXSTytK7ccNJ5SEUr7dsS83VlWNBU1kwXiRX/pvnk1RmvhRVbX6cneBCvw0AJ5nkxCRcvc4eb7n2ZIw05DDvlIOFqIKGo2kgnabydDHsLFpq9i4RDNfW+JiaeCoqbqnxRdjwfY83DTWh6rhPd3QfRu+9NbG1dhcW3Ovr3CQXjj/fjnt/4bgLH/U2onxPGrL/WiMYnVT6giciGnCkqy8wrR8UAzpVrY1vf8ACdrCk8DVYN6g1TYGlzUhrTnbVo2tKNzocjFKiI6EFPBNF7yYY9vExzLd8CHu/UtlcVGKpfOs7xGcHHTG1ii4tIuIz9WgY8b5FRf1sVFBxVaGVktUAIlU80XhIZHntm7OdieGLcpWTgm8n0OMO3OFlivxB47jZg01yVyCN9cxEtyxByXsEM9sYuZv/bD78CxVJI6Bpmmh5f1z66C83HTH/r5CbB35MQmk8uVbzKqSLDEwYbK9s8G0iPiFdkGD0vRhcvY7NhSnpd7nZUFzpQuYb8bG5Ke6I9vGFPOLmoeJKbqnxRdjwf4+JbS1E6y061/wjFKgA3VjQ+iD2cvWQxau409l5Y4UHzspp+oqKTTQKv45hmH5B4OLuMwSB0/p8hEe/iabAWo8IwBZY2J6UxkWdcemlWRB5T5DjhGcyxEZFirqFzWWWDQo9fw9PkTRiMXSFdNgc9pm1k2I2eCgc2VF2gCmbICDZuIkFQRR0WLyuCrU8E3STMkUzVFIpJdCIvOZnODQkSN7EunOYbfMzzDp5O5spxvkr0WU6giQtKDu3LGCzTQ8doeZgkXraAVgwSL7owHUZbTeeTg2oKyU2mOkcAdjomrW/y++RZnhV4T2TTsUfSd5YqhBIvYzdUMBLueaWaeLnXVWOmfSaWsseVVYjaDe1hmtKGKJ52dJAhY0pvq0JemJva8yR5Nk8Gr+1kBbYbDoCugKm+Cu9pQm2oPrvhTBRPp5s8j8pHA8c7ZdGjV51HBo68sa3GKDiyeOXfDNIESR5AG3k2AdMWKdjDshonFWx9IuC+zsXkcZTSLVNIvy9o4gg+8z1P5VW3ALurDmPL7Ye1V7msIu+qtsQ3+HggcwmaIxWzxwU5v7TOPjlQ6FismvRwf8o3t5Aw/S2wssGU0jVrI48wjyMTaeOWlwLFzU4CGt+KXWIJJV6ffx5q4KGPAYlXMM8rJcWLvK260lzYrlqKdrorsq6swdYd67HwolS53FnIjldHP7OtUzWtzEF+QWhx9vy5GiU/atYePsetFfCFKBibNOlhm5SI3sA85F8W8BhHBg8WTsWmPm6K5llCsotQt12tixV6MkdH8nTSM8619PwnyesyWk8yxFXkTeSNoeu7j6oMhmYp2zl0na1mbCOD2LqehI0Mp6XXcEQtTRw8FGT7RECGm9+x1UQitP620KnafGuRuYp2GqdI0F4iSUJijJfIJ4EKZlmyyXtymD7ksPdGqoC0k7e10NxXRyyk39w4Swkse8YkcJXv+T5j0ukRL6TrOpQIFbChx0+EYkDiFczzSqlmwwNdaF4wE5OnzUTVaic84+0o5VDxZxYjL9aAg4FgbtvuI1O7AePGAa+vyRAZyA7h2LjXVaFwDgn6ftpyVi1qlztUO7oncC6/nGySGh+de8N1HYfCBtuF+g/tQFNzsIbK/nhfa0WdNqNHNrJLG8J2YA86GxtRw7OEuNuwtcPCdYmGUE8meTkuMnR1a4DcZVRLp+p3wLmgv+UJXvVADA6oMJJxfH/D6iFDWLXKt69gR36Q7l0rkdKi5+LhedFxut4mQ85TVG0k47wSmEy/r5IMetSBCLS9OYhE6zccgHfVD9q/k0Sn7BESSkOMmo1EsziEkKSTSeThCAGWkX57JVVAZpoCUbRryWPuaPt0Os/a93EAhykgpPwyEsRoxoqlAEn1vMzi9fHHvimZk+95eeH521rN0E3OmYqyh9rh2s+DaVehc0cnmkKEiscOfac+ZdCuDrStbkbrbx9BlTHcmyeFHZWNSqv5AePNmHRM0jKb0WaI7OtDE/V88kR9YfQZsxajrXkh7MfZkFOgtjFC+9OvtmdX14CEI7+grK/ZpOuBSpQ9xnN2WON1O33zJs7IxuhpJajiGT3GO1C7pKJvH/7pq2LBjozIAwpDM7sW7c81oemZTjTcNPCm0IA+LzJcXWSwGniAMRn0yWToqv7ev0+E+1Q4Eq56ml+gMsnjMN7vPDtEA3lXPIapnYwhz5fIr/av06JS/XA/zkLD4+shA2sO82a0gA0LcfHw/ul7WIiq2VOgY76ucSSu+u/jUEQGWEv8riwe+LtEzdf4KK3jyYH/Qn/HEYBkwxp4wuHwXSD9MR0TR+aGjs41QTdl2wskFHRMPAGxNqMGuVfsJdWtJaH/BVUeyFMNCKggz66aPF7z7B5m7N8E7jg9/EvseQxfNpnTqsfpu+j88Pc1m1od8uhaV9N2Q42BilfaoUOHwp/BILCnZZx0l1/fXFlZifPOOw979vjq/StWrMD8+fO1fOysxYJR12AFZ/+f3+FQPVVFmL8/iCumL/KF/36lADd8bwrw7i50vLgZu/Tqy/hJKLj2Liz78Q2YHqs94ZnO/+HE5q5d2PMiGW76DufeHjIoHuz5256Atu7wFGDZ9ufwH1pn+S48OGsaFj3P+Vvxu0PLoX7ZwHlnBa7JWUBnjhg/HbPLb8Rc9ni+cKPjD63Y8OcXsUczVhmYfv1yrHlkLiapB3vtLaNwTeN0/Neft2HJxb51AddgwMfqwdrKy3DNf/vf3ZL19TmYfYkd9ktIct/oQNfre9CxpQPb3wo8uxlfm4sljU/gVuPD+vQCjLpaHdmaQ1j+Ay0bBv33GK+HBTHt2xqu1EVcmfOOwIOPj8CiwCGTIZlExnDZD45izoTAR9rbPRLXPZ6GtRbCE4yCKUex7IpedP8vic1OtXJcL577d1KE9pG4wjjDycm92HIdrf/nCDS/mgYnPRrbyaAHq5BEDe3/uRuOoCCaJr/DaXisaSRuNkReTpp0FBv/9WjffR6So2nY8Az9dsuZXIIwphdPXHsUc7MjM6l7d32BB/54ElYMoAl8ysRe/KrkCC5JQHNoolm3bh2Ki3nWnP78/Oc/x8KFC1XJmrh6XlbNhvGZlDebjJbKBuONzXisYQUee5qFKwOTvnMDlj25BXtdu/HcL2MRLg9e/O8FuObS8zBh7ARMvOgKXDdvAe5R37H9le3YzsKVNQXTvz6dUgHmlN+KWyt8aUn9E6hvqMcTTz7hSxu20bHsxd69zwQ3lPHkrFtxV/1cTOem0f3bseH/XeCb4X3+Iqx4moUrC1O+dytWvrgD21b5hYtJ19ovt8NtDLkmPyebaos+SMRDzSIQlgzM+eU6PHH99L6oRfcra+n63YMFdIwL7l2BFb/ZEChcWVQ5+eVz2PGiSbiYbBJglY0c/Z5yBszW0Y8+D5aO8f0BNgVGAz2ZoQauBkBu1X9cTob5+iP9hItJn0AG9f+oQjhO7MWSq47gmeKjmD6OvLaT1HqG1Mh90GLYC+nWk80jcdmzaVjRDbwYT+Ei5k7v1fruosYk1prnFek5/ZjEPop3CLLYb5t/JGLhYk445RMsu/4olpypVkRJwdSjWHPt0BQuJpTnFUmfV1ovofIxcdJJJ/W5eFVVVViyZElAIMeWLVtw6aWXqlLs8Nxx5fc0wzV3PXqWF/pWvtOG6gV1aGMvaGwOci/MhX2WA9+9bAYm0QUN1SEYni7UXVGEpp4MbWaLnKwc2O08GasduZMyyf6GH5DqdruRlRVKNek7HFNRxa7j+Aqs31cP9cvigjbFyoE92Lblr3Bx7c57EAfTR2P0eBscefagx++ic13yaBeySxux/j/8IfJtP5qMogfZ0jtQu2MTFkbw6hV9mpdg14L7sRqWN6Jp41Y49wR6WTyzfP6sQpRcU4ziS3KCN/l42lF3T6vWlGm/rh7lF/lW61gfgwfN12Wi7EmgorUXujPfj8NtqLIVoY4MmWPZTmy6M/YmyvD3gwE65IZVQGUIvcw5BSj9OrRpnMyzY/SD1GTdC71Y8TfyKCxaZOx0WCXToM1ubpzBo+svQNFGf5/a4mtpu3foXNB6/WrxlFXfeJdqy0Hm9eM3CHOgRNZYcqJO6kU21XlPTE9DOh0zj13jJU9zp+VP8JV5LBQvfTOYxIDF+bOfT/cwHf/4o6HvSQ16XqpXAktDNVfS8ZXSPssuBgpjCLbqux9I/J1OOt4XgMYImkezqMZXVUD3LTcND8D9CPdsJpqNGzfiiiuuUKVAli1bhjvvvFOVrBmweE2aNAlvvfWWlr/ppptw//33B3hbr776KqZNo7M8iCT7ouhEZawSQNzPw34n2jq8yJlhhy3CsWfRHQP3G3rgPS4jxrFt1oQ6Bu9+sm5UEQnVF+Ld1Yy6NT3Im1sBR5CZPSIhWvFq/DUw3xjxSQJgp0fLdgYJBnmN/CbfaPCdhzQcODASXftUeDv97pxsSkHGM3k/oOMgw6rN/0iGMucCMthkqLv+TkJAn+VMJsNNf9+6AWihOmQOHV8Oefs5dGy202lpqiAN2rNJv611DQmtIQSwmESm8bvkTEciXoR7N1C7hX6r7kbS78+meqv9bCD3K7Sk3ziQu7Tf/UDH7KZzuvUNoPNtEjTyYrmvL5uujY3Oaf55dM2p7hSvQLNBuxZBeP7551FQYNXBTkLe0IDbbrtNlawZsHjNmDEDL7/se63aNddcoykmC5rO22+/jYkTJ6rS4JDsi6JzzIlXDMgx+IlavJ4g8dJnuaBDXzWfvKwB3E7D7lrQV3XtJQEmj4+Nvy40Q/J+SADJPg9bt27FN7/Z1xcRwK9//Wtcf/31qmTNAJxOH0Yvi6MNDx7UX/Hh4+STT1Y5QRCiYfRIlWGoVj6Y8wceE5BN5rB1u0G4hNQhVJ8Xd0eFI+7iZexo4zkNx40bYoMPBCFVMD+dIl7CMcTxxx+vcv0ZFPEaP97fAMviZYzPz8jQY8kEQYgKejLNnfHieQnHEinteUmToSAMAOPTycIVZHomQRiKhBIv89SDVoh4CUKKIp6XcCyT9GZDo3ixcBmbDUW8BGEAmJ9OES/hGCKlmg0Z6fMShPhg9rx4YlxBOFZIKc+LkWZDQYgTpuE3VpPiCsJQJemelzHakJFmQ0GIA/Rkmt/nxbO6C8KxQjDPi9en83xhYRiweHHToHGC3rvvvlvlpNlQEAaE6ek8GOcJbwUhmQTzvE4//XSVC82AxYuZPHmyygUSiXoKghAE09OZTXVBeaKEY4Vg01INqnh95Svqla0mQnXICYIQGg7Y0MXKRo9Y+XmqIAjHMCJegjDEsc0A2ucCW6+nVEZleZyEYUCkkxWLeAlCipJ+CpB3PqUcICMuT6ogpD7ieQmCIAhDjpQI2BDxEgRBEKJBPC9BEARhyDGo4jVy5MiAtyfrhBpBLQiCIAhmBlW8GCvvSzwvQRAEIRoGNdqQser3EvESBEEQIoXnNMzMzFSl0MRNvM47r/8IShEvQRAEIVKmTp2qcuGJm3hNmTJF5QRBEAQhei644AKVC4+IlyAIgpASJMXz4mbDE088UZUEQRAEITqS4nkx559/vsoJgiAIQnQkxfNiRLwEQRCEWDjttNMsxwsHI62XUPkBc9999+Hee+9VJWDz5s349re/rUqDx+HDvvelB3tfzGDhdrsjHrOQCFLhPMgx+Bmq98PRo0f7pSNHjliut0rGbQ8dOqQt09LS+tYZk3HbOJqmAPg7GJ5cIVmMGDECHo8HEyZM0PJ8LJz0fDzWhSMVngu+D3Quv/xyPP/886oUnriK129/+1vMnTtXlXxixidGTzzjRqh8PJZ84cRY+Rjs86AbHuPyyy+/1Ja6sbLaJtJ1VstI1vF54Dzf6qG2M6/Tk/53wVKoz42fff7559rwEavPzCncd8aSYt2nMDTRRc0oaOYU63q2KVbLaPNLlixRRwvccsstWLFihSqFJ41qQnETr+3bt2PGjBmqlDrwG51POOGEvqWe9DKfyETAhjvVxrqxYdYTG6Zw5Ui20fOCIAix8uCDD6KyslKVwhNX8eKa5Ve/+lW89dZbao0gCIIghGfDhg34zne+o0rhiWuzIcNNh4888ojmdejpiy++sMxzivPXC8IxBT8fO3fuxIcffqi1EOhJbyoPloyf603pXq9X63NiuGxMvN68Tk8ffPAB9u3bp/19dnY2zjjjjL7mI14a8+GW/Ht4yS0eobbjJdsK7hfS08cffxxQ5mPmlg3eFy/1ZCxbfcb75vPDQ3uMn7/66qvYvXu35TmwStwtIkQHdx+MHTsWY8aM0RJPB8VLh8MREC8RCXEXL76oDD80kWAUsmAiF02eb2h9yU1a+kMZbhnJNlZLaS4TBOFYhUVdF5tIl+akC5SejNrAdpSJVC+MJF28EsFgHgOfPhYxo6Dpqbu7GxkZGZafGcuhPrMqR5p0Eee/1/ORJEEQBhf2SHTPUPcE9bzVMlyKZDv2QHmpe6BWibdJJGybGBEvRSocAzNUow3NgRjmcjSfsRjykjF/Zk7hPtdTuO34dxvL+jHwrW7+zJisPtPXGT+Ldh0frxB/uHmR7+1oExtkXoZreg2XwglMuCU3fU6cOFErcxps+P5k+Lcki4Ecg4hXApFxXnIMRuR+kGMwIvfDwI4hrjNsCIIgCMJgIOIlCIIgDDlEvARBEIQhh4iXIAiCMMQA/n/T3R/RKpouBgAAAABJRU5ErkJggg==;" vertex="1" parent="WIyWlLk6GJQsqaUBKTNV-1">
          <mxGeometry x="320" y="221" width="119.25" height="70" as="geometry" />
        </mxCell>
      </root>
    </mxGraphModel>
  </diagram>
</mxfile>
